<?xml version="1.0" encoding="UTF-8"?>
<svg xmlns="http://www.w3.org/2000/svg" version="1.1" viewBox="0 0 141.7 141.7">
  <defs>
    <style>
      .cls-1 {
        fill: #7c9ae1;
      }

      .cls-2 {
        fill: #0305f6;
      }

      .cls-3 {
        fill: #f8f9f7;
      }

      .cls-4 {
        fill: #879bef;
      }

      .cls-5 {
        fill: #0b00fe;
      }

      .cls-6 {
        fill: #93b3fd;
      }

      .cls-7 {
        fill: #0601fd;
      }

      .cls-8 {
        fill: #e46a4c;
      }

      .cls-9 {
        fill: #f5f6fa;
      }

      .cls-10 {
        fill: #f4f4f7;
      }

      .cls-11 {
        fill: #d4f2e6;
      }

      .cls-12 {
        fill: #111af2;
      }

      .cls-13 {
        fill: #de5212;
      }

      .cls-14 {
        fill: #161b71;
      }

      .cls-15 {
        fill: #07d5c1;
      }

      .cls-16 {
        fill: #f4f9f7;
      }

      .cls-17 {
        fill: #0104d6;
      }

      .cls-18 {
        fill: #fdfdfb;
      }

      .cls-19 {
        fill: #f28e01;
      }

      .cls-20 {
        fill: #0914ec;
      }

      .cls-21 {
        fill: #f7fdf2;
      }

      .cls-22 {
        fill: #01f2db;
      }

      .cls-23 {
        fill: #dafdfb;
      }

      .cls-24 {
        fill: #01c9ca;
      }

      .cls-25 {
        fill: #bfd7f5;
      }

      .cls-26 {
        fill: #a9b2f7;
      }

      .cls-27 {
        fill: #b0a7f9;
      }

      .cls-28 {
        fill: #edfaf5;
      }

      .cls-29 {
        fill: #f6efe9;
      }

      .cls-30 {
        fill: #f5fdfa;
      }

      .cls-31 {
        fill: #e16b0d;
      }

      .cls-32 {
        fill: #ed7501;
      }

      .cls-33 {
        fill: #03d4e3;
      }

      .cls-34 {
        fill: #03a8d2;
      }

      .cls-35 {
        fill: #fbfdf9;
      }

      .cls-36 {
        fill: #0822f9;
      }

      .cls-37 {
        fill: #fcfcfc;
      }

      .cls-38 {
        fill: #1cc1b6;
      }

      .cls-39 {
        fill: #0aced9;
      }

      .cls-40 {
        fill: #1913b1;
      }

      .cls-41 {
        fill: #0214f5;
      }

      .cls-42 {
        fill: #0ccdd9;
      }

      .cls-43 {
        fill: #90a5f2;
      }

      .cls-44 {
        fill: #17c9ca;
      }

      .cls-45 {
        fill: #08cdd7;
      }

      .cls-46 {
        fill: #decce0;
      }

      .cls-47 {
        fill: #01d1e3;
      }

      .cls-48 {
        fill: #fdf2f9;
      }

      .cls-49 {
        fill: #e76b3c;
      }

      .cls-50 {
        fill: #7589c3;
      }

      .cls-51 {
        fill: #fefef6;
      }

      .cls-52 {
        fill: #0cdcd7;
      }

      .cls-53 {
        fill: #1352ed;
      }

      .cls-54 {
        fill: #fd5413;
      }

      .cls-55 {
        fill: #f5fee3;
      }

      .cls-56 {
        fill: #03c8dc;
      }

      .cls-57 {
        fill: #f4fae0;
      }

      .cls-58 {
        fill: #031af8;
      }

      .cls-59 {
        fill: #07dbcb;
      }

      .cls-60 {
        fill: #12dfda;
      }

      .cls-61 {
        fill: #04cad0;
      }

      .cls-62 {
        fill: #040af9;
      }

      .cls-63 {
        fill: #0d0c9a;
      }

      .cls-64 {
        fill: #b7eeed;
      }

      .cls-65 {
        fill: #0910d0;
      }

      .cls-66 {
        fill: #0104d8;
      }

      .cls-67 {
        fill: #0532fc;
      }

      .cls-68 {
        fill: #678de7;
      }

      .cls-69 {
        fill: #0f005d;
      }

      .cls-70 {
        fill: #05d0d7;
      }

      .cls-71 {
        fill: #fdfdf7;
      }

      .cls-72 {
        fill: #0b30f4;
      }

      .cls-73 {
        fill: #03c6d6;
      }

      .cls-74 {
        fill: #0009da;
      }

      .cls-75 {
        fill: #1311c1;
      }

      .cls-76 {
        fill: #05ddd5;
      }

      .cls-77 {
        fill: #08d0e7;
      }

      .cls-78 {
        fill: #0407cb;
      }

      .cls-79 {
        fill: #071be9;
      }

      .cls-80 {
        fill: #fbfef9;
      }

      .cls-81 {
        fill: #0115f5;
      }

      .cls-82 {
        fill: #fdf6f6;
      }

      .cls-83 {
        fill: #9af2f1;
      }

      .cls-84 {
        fill: #788ce3;
      }

      .cls-85 {
        fill: #0001d6;
      }

      .cls-86 {
        fill: #030e75;
      }

      .cls-87 {
        fill: #0814fd;
      }

      .cls-88 {
        fill: #050ce5;
      }

      .cls-89 {
        fill: #fbfce3;
      }

      .cls-90 {
        fill: #02d5e1;
      }

      .cls-91 {
        fill: #2367ee;
      }

      .cls-92 {
        fill: #0212ec;
      }

      .cls-93 {
        fill: #839bf3;
      }

      .cls-94 {
        fill: #07d2da;
      }

      .cls-95 {
        fill: #ede7e5;
      }

      .cls-96 {
        fill: #8697e2;
      }

      .cls-97 {
        fill: #eefbfa;
      }

      .cls-98 {
        fill: #0d2ee5;
      }

      .cls-99 {
        fill: #7d90fa;
      }

      .cls-100 {
        fill: #fd9913;
      }

      .cls-101 {
        fill: #f7e1c8;
      }

      .cls-102 {
        fill: #111ffa;
      }

      .cls-103 {
        fill: #daf5ea;
      }

      .cls-104 {
        fill: #0d55e0;
      }

      .cls-105 {
        fill: #0b1379;
      }

      .cls-106 {
        fill: #120a9b;
      }

      .cls-107 {
        fill: #0ccfc3;
      }

      .cls-108 {
        fill: #8dabf2;
      }

      .cls-109 {
        fill: #03bfdc;
      }

      .cls-110 {
        fill: #0605da;
      }

      .cls-111 {
        fill: #010ecf;
      }

      .cls-112 {
        fill: #99b0f5;
      }

      .cls-113 {
        fill: #2533fd;
      }

      .cls-114 {
        fill: #14d0d1;
      }

      .cls-115 {
        fill: #f5faf0;
      }

      .cls-116 {
        fill: #0738fc;
      }

      .cls-117 {
        fill: #0226ea;
      }

      .cls-118 {
        fill: #ecf8f9;
      }

      .cls-119 {
        fill: #0212fa;
      }

      .cls-120 {
        fill: #0a06be;
      }

      .cls-121 {
        fill: #d2ecf9;
      }

      .cls-122 {
        fill: #f3f7f9;
      }

      .cls-123 {
        fill: #02c4de;
      }

      .cls-124 {
        fill: #101cfe;
      }

      .cls-125 {
        fill: #fbfdf0;
      }

      .cls-126 {
        fill: #0209fb;
      }

      .cls-127 {
        fill: #040177;
      }

      .cls-128 {
        fill: #092a91;
      }

      .cls-129 {
        fill: #fbfaf8;
      }

      .cls-130 {
        fill: #f7f7f4;
      }

      .cls-131 {
        fill: #14ccdd;
      }

      .cls-132 {
        fill: #0578bf;
      }

      .cls-133 {
        fill: #ece8ec;
      }

      .cls-134 {
        fill: #181491;
      }

      .cls-135 {
        fill: #9cb3fc;
      }

      .cls-136 {
        fill: #041df4;
      }

      .cls-137 {
        fill: #e05b3c;
      }

      .cls-138 {
        fill: #1cba9a;
      }

      .cls-139 {
        fill: #01dbe0;
      }

      .cls-140 {
        fill: #0208ed;
      }

      .cls-141 {
        fill: #fdfcfb;
      }

      .cls-142 {
        fill: #0903df;
      }

      .cls-143 {
        fill: #074ae0;
      }

      .cls-144 {
        fill: #fdfeea;
      }

      .cls-145 {
        fill: #b6c7ee;
      }

      .cls-146 {
        fill: #0505f0;
      }

      .cls-147 {
        fill: #fb8302;
      }

      .cls-148 {
        fill: #1a5ef1;
      }

      .cls-149 {
        fill: #dd8e02;
      }

      .cls-150 {
        fill: #060cf2;
      }

      .cls-151 {
        fill: #01cfc9;
      }

      .cls-152 {
        fill: #0520f6;
      }

      .cls-153 {
        fill: #0bccdb;
      }

      .cls-154 {
        fill: #8b9fe3;
      }

      .cls-155 {
        fill: #8b9efa;
      }

      .cls-156 {
        fill: #fcf6f9;
      }

      .cls-157 {
        fill: #d5fdf6;
      }

      .cls-158 {
        fill: #09d1d7;
      }

      .cls-159 {
        fill: #030ae5;
      }

      .cls-160 {
        fill: #0a06b9;
      }

      .cls-161 {
        fill: #d4e1c1;
      }

      .cls-162 {
        fill: #0a4de1;
      }

      .cls-163 {
        fill: #06c1ab;
      }

      .cls-164 {
        fill: #aebef9;
      }

      .cls-165 {
        fill: #030dee;
      }

      .cls-166 {
        fill: #00d9dc;
      }

      .cls-167 {
        fill: #0708eb;
      }

      .cls-168 {
        fill: #0013ec;
      }

      .cls-169 {
        fill: #ef5101;
      }

      .cls-170 {
        fill: #fdfdf4;
      }

      .cls-171 {
        fill: #1953fa;
      }

      .cls-172 {
        fill: #05c7dd;
      }

      .cls-173 {
        fill: #0422f4;
      }

      .cls-174 {
        fill: #f78707;
      }

      .cls-175 {
        fill: #e5f1df;
      }

      .cls-176 {
        fill: #fc7b18;
      }

      .cls-177 {
        fill: #fc4919;
      }

      .cls-178 {
        fill: #06cfdb;
      }

      .cls-179 {
        fill: #02d2c7;
      }

      .cls-180 {
        fill: #05ddd7;
      }

      .cls-181 {
        fill: #07d1d0;
      }

      .cls-182 {
        fill: #fbfcf3;
      }

      .cls-183 {
        fill: #03d4da;
      }

      .cls-184 {
        fill: #0e93d5;
      }

      .cls-185 {
        fill: #09d6de;
      }

      .cls-186 {
        fill: #87adf3;
      }

      .cls-187 {
        fill: #fbfafb;
      }

      .cls-188 {
        fill: #f87218;
      }

      .cls-189 {
        fill: #f96f20;
      }

      .cls-190 {
        fill: #0ab2dd;
      }

      .cls-191 {
        fill: #01dbe3;
      }

      .cls-192 {
        fill: #6da1f1;
      }

      .cls-193 {
        fill: #8598e3;
      }

      .cls-194 {
        fill: #fdfee1;
      }

      .cls-195 {
        fill: #0b10bd;
      }

      .cls-196 {
        fill: #fdf4fd;
      }

      .cls-197 {
        fill: #1d5dba;
      }

      .cls-198 {
        fill: #f38213;
      }

      .cls-199 {
        fill: #fdfdeb;
      }

      .cls-200 {
        fill: #070068;
      }

      .cls-201 {
        fill: #32dad1;
      }

      .cls-202 {
        fill: #03cde3;
      }

      .cls-203 {
        fill: #050df5;
      }

      .cls-204 {
        fill: #f65007;
      }

      .cls-205 {
        fill: #899cf8;
      }

      .cls-206 {
        fill: #0407f3;
      }

      .cls-207 {
        fill: #1318fc;
      }

      .cls-208 {
        fill: #081ded;
      }

      .cls-209 {
        fill: #bbb9fb;
      }

      .cls-210 {
        fill: #add0fa;
      }

      .cls-211 {
        fill: #fafcfc;
      }

      .cls-212 {
        fill: #eef5ea;
      }

      .cls-213 {
        fill: #fdfafd;
      }

      .cls-214 {
        fill: #a39de2;
      }

      .cls-215 {
        fill: #19cef0;
      }

      .cls-216 {
        fill: #f6fbfb;
      }

      .cls-217 {
        fill: #0406fc;
      }

      .cls-218 {
        fill: #e2f8ef;
      }

      .cls-219 {
        fill: #eb8510;
      }

      .cls-220 {
        fill: #081ff8;
      }

      .cls-221 {
        fill: #0c55f8;
      }

      .cls-222 {
        fill: #0609e7;
      }

      .cls-223 {
        fill: #dd512c;
      }

      .cls-224 {
        fill: #f2fbda;
      }

      .cls-225 {
        fill: #ecebed;
      }

      .cls-226 {
        fill: #0de2e0;
      }

      .cls-227 {
        fill: #6c8cee;
      }

      .cls-228 {
        fill: #f5fbf1;
      }

      .cls-229 {
        fill: #0dd5b4;
      }

      .cls-230 {
        fill: #3ac8c5;
      }

      .cls-231 {
        fill: #e58e52;
      }

      .cls-232 {
        fill: #d5fbfc;
      }

      .cls-233 {
        fill: #1009dd;
      }

      .cls-234 {
        fill: #8f98de;
      }

      .cls-235 {
        fill: #f87206;
      }

      .cls-236 {
        fill: #f8fbfc;
      }

      .cls-237 {
        fill: #8190ea;
      }

      .cls-238 {
        fill: #f5fdfd;
      }

      .cls-239 {
        fill: #1206f0;
      }

      .cls-240 {
        fill: #1f1e9a;
      }

      .cls-241 {
        fill: #f98204;
      }

      .cls-242 {
        fill: #0403e5;
      }

      .cls-243 {
        fill: #0903f6;
      }

      .cls-244 {
        fill: #0d04f8;
      }

      .cls-245 {
        fill: #111864;
      }

      .cls-246 {
        fill: #dcdff0;
      }

      .cls-247 {
        fill: #f9fced;
      }

      .cls-248 {
        fill: #eef7fd;
      }

      .cls-249 {
        fill: #090a7f;
      }

      .cls-250 {
        fill: #e68006;
      }

      .cls-251 {
        fill: #00d8d6;
      }

      .cls-252 {
        fill: #e0834a;
      }

      .cls-253 {
        fill: #f0f2f7;
      }

      .cls-254 {
        fill: #00093f;
      }

      .cls-255 {
        fill: #6695fe;
      }

      .cls-256 {
        fill: #fa8e0d;
      }

      .cls-257 {
        fill: #d8f9f9;
      }

      .cls-258 {
        fill: #0cd6d0;
      }

      .cls-259 {
        fill: #fefefe;
      }

      .cls-260 {
        fill: #fefef1;
      }

      .cls-261 {
        fill: #fefdf2;
      }

      .cls-262 {
        fill: #45e9ca;
      }

      .cls-263 {
        fill: #0ecae0;
      }

      .cls-264 {
        fill: #06a1e7;
      }

      .cls-265 {
        fill: #06d3cb;
      }

      .cls-266 {
        fill: #fdfbf7;
      }

      .cls-267 {
        fill: #a5bdf2;
      }

      .cls-268 {
        fill: #02d0d1;
      }

      .cls-269 {
        fill: #0cbce3;
      }

      .cls-270 {
        fill: #ebf9f9;
      }

      .cls-271 {
        fill: #05d7cc;
      }

      .cls-272 {
        fill: #0c3ef9;
      }

      .cls-273 {
        fill: #fafced;
      }

      .cls-274 {
        fill: #f9fdf0;
      }

      .cls-275 {
        fill: #14e1d1;
      }

      .cls-276 {
        fill: #f3f8f5;
      }

      .cls-277 {
        fill: #ef6523;
      }

      .cls-278 {
        fill: #12cad6;
      }

      .cls-279 {
        fill: #e5f9ea;
      }

      .cls-280 {
        fill: #e5f9f6;
      }

      .cls-281 {
        fill: #0ad8d6;
      }

      .cls-282 {
        fill: #e6abda;
      }

      .cls-283 {
        fill: #03d7dd;
      }

      .cls-284 {
        fill: #fcfdfd;
      }

      .cls-285 {
        fill: #01d3c8;
      }

      .cls-286 {
        fill: #f63e0a;
      }

      .cls-287 {
        fill: #7edcf6;
      }

      .cls-288 {
        fill: #09abc8;
      }

      .cls-289 {
        fill: #02a1e2;
      }

      .cls-290 {
        fill: #21e3ce;
      }

      .cls-291 {
        fill: #f27019;
      }

      .cls-292 {
        fill: #fbfee8;
      }

      .cls-293 {
        fill: #04ddc6;
      }

      .cls-294 {
        fill: #190e70;
      }

      .cls-295 {
        fill: #fb7403;
      }

      .cls-296 {
        fill: #7a88c8;
      }

      .cls-297 {
        fill: #808fcc;
      }

      .cls-298 {
        fill: #f4f6ec;
      }

      .cls-299 {
        fill: #f0dbd7;
      }

      .cls-300 {
        fill: #e3ebea;
      }

      .cls-301 {
        fill: #06cacd;
      }
    </style>
  </defs>
  <!-- Generator: Adobe Illustrator 28.6.0, SVG Export Plug-In . SVG Version: 1.2.0 Build 709)  -->
  <g>
    <g id="_图层_1" data-name="图层_1">
      <g>
        <path class="cls-259" d="M70.7,136.3c-22.6,0-45.2,0-67.9,0-2.8,0-3.3-.7-3.3-3.4.1-41.4.1-82.8,0-124.2,0-2.6.3-3.4,3.2-3.4,45.2.1,90.5.1,135.7,0,2.6,0,3,.7,3,3.1,0,41.6-.1,83.1,0,124.7,0,3.1-1.1,3.1-3.5,3.1-22.5,0-44.9,0-67.4,0Z"/>
        <path class="cls-211" d="M76.5,31.4c2.2-1.6,4.5-2.5,7.3-1.4.7.3,2,.5,2.3.2,6.4-6.9,6.9,2.3,10.6,3.6,1.5-5.5,4.3-.2,6.7-.4,1.4-1.5,3.5-1.2,5.2-2.2-1-.7-2.4-.7-3.2-1.8,0-1.7.3-4.1,2.1-3.7,4.6.9,9-.9,13.5-.1.9.2,1.2,1,1.3,1.8-.1.2-.2.4-.3.5-1.2,1-1.1,2-.2,3.1,1,1.6,1.5,3.3,0,4.9-.7.3-1.4.5-2.1.5-3.4-.3-6.8-1.5-10.2-.3-.9.2-1.9.4-2.8.5-4.4.8-6,4.9-8.3,7.9-2.2,2.9-4.2,3.9-7.5,2.3-1-.4-1.4-1.2-1.6-2.1-.8-4.3-2.2-8-7.5-8.3-.4,0-.9-.2-1.3-.4-1-.5-1.8-1.3-2.5-2.1-.6-.8-1.3-1.6-1.7-2.6Z"/>
        <path class="cls-284" d="M93.5,115.3c-1.5-2.2-3.7-2.1-6-2-.8-.6-1.3-2.1-2.6-1.4-.7.4-1.1,1.5-.4,2.4,0,1.2.7,2.1,1.4,3.1.6.9.7,1.8-.3,2.6-2,1.5-11-.8-11.7-3.3-.9-3.3-2.7-3.6-5.4-2.4q-2.3-1-1.5-5c-1.5.5-2.9,1.6-4.5.3-.6-.9-.2-1.7.3-2.5,1.1-1.4,2.6-2.3,3.9-3.5.5-.4,1.1-.7,1.7-.7,2,0,2.6-3.1,5-2.1,2.1.1,2,3,4.1,3.2,1.2,0,2.4-.4,3.6-.5,1.8.2,2.8-1.7,4.5-1.7,1.5.4,2,1.7,2.6,2.9,1.1,3.3,2.9,3.6,5.2,1.1,1.5-.8,3-1.5,4.7-1.2,2.9,2-.2,3-.7,4.5-1.4,2.1-1.8,4.8-4.2,6.2Z"/>
        <path class="cls-141" d="M115.5,89.4c2.3,3.3,1.8,6.3-1.8,7.8-2.4,1-2.1,2.5-2.2,4.2-1,0-2,0-3,0-3.3-1.4-7,0-10.3-1.2-.4-.2-.8-.6-1-1-.1-1.6,1-2.6,1.7-3.9.7-.9,1.5-1.7,2.4-2.4,1.8-1.3,3.1-3,4.6-4.7.5-.5,1-.8,1.7-1,.4,0,.9,0,1.3,0,1,.5,2,.6,3,1,1.1.7,2.5.6,3.7,1.2Z"/>
        <path class="cls-236" d="M131.5,53.4c0,2.7,1,5.3-1.1,8.2-1.2,1.7-3.2,5.4,0,8.2.5.4,1.5,2.2-.2,2.9-1,.4-1.8-.5-2.5-1.2-2.4-2.5-2.3-2.4-3.6.5-.9,2-2.5,2.8-4.6,1.5,0-.2,0-.4,0-.6-.1-1.2-.2-2.4-.6-3.5-.2-.6-.2-1.3,0-1.9.1-.4.3-.8.6-1.1,2.2-.9,2.3-3.6,4.1-4.9.4-.2.8-.2,1.3,0,.5.6.9,1.2,1.7,1.6-.7-.7-1.4-1.4-1.6-2.4,1.2-6.6,2.2-7.8,6.7-7.1Z"/>
        <path class="cls-71" d="M31.6,64.4c0,1.3.2,2.8-1.3,3.4-.8.3-1.4-.6-1.7-1.4,0-.6.2-1.5-1-1-3.7-1.5-1.3-4.7-2-7-1.1-2.2-1.8-4.5-1-7-.1-.8-.2-1.8-1.4-1-.6.5-1.1,1.2-1.6,1.9-.5.7-1.1,1.2-2.1.8-1-.4-1.1-1.4-.6-2.1,2.7-4.1,1.5-8.5.7-12.8,2.5-.6,2,2.9,4,2.2.5.5.7,1.1.6,1.8,0,1.6-1.3,3.4.7,4.8,1.1.7,2.2,1.3,3.1,2.3.6.7,1,1.5,1.3,2.4.5,1.6.8,3.1,1.2,4.7.2,1.9.5,3.7,1.6,5.3.3,1,.3,1.9-.5,2.7Z"/>
        <path class="cls-276" d="M64.5,42.4c.6,0,1.3,0,1.9,0,1.6,2.9-1.4,4.1-2.2,6.1-1,1.3-1.5,2.8-2,4.3-.2.4-.5.8-.9,1.1-1.2.6-2.3.6-3.5.2-2.7-1.5-3.2-4.5-4.7-6.8-.8-1.3-1.7-2.6-2.1-4.2,0-.4,0-.9.2-1.3.2-.2.3-.3.5-.5,2.9,3.4,5.9-.5,8.9,0,1,1.6,2.5,1.4,4,1Z"/>
        <path class="cls-187" d="M31.6,64.4c0-1,0-2,0-3,.2,0,.4-.1.6-.2,1.3.4,1.9,1.5,2.9,2.2.3.3.6.5.9.9.5.7.9,1.4,1.3,2.2.7,1.6,1.6,3.1,2.1,4.7.1.4.2.9.2,1.3.7.8-1.9,3,1.2,2.8.8.9,1,1.9,1.3,3,.2,2,.4,4,0,6-.1,1.1-.4,2.1-.8,3.1-.2.3-.5.7-.8,1-.3,0-.7,0-1,0h0c-.7-2.2,2.3-6.3-3.3-6.2-.9,0-.7-2.4-.6-3.7.3-5.2-1.7-9.7-4-14.1Z"/>
        <path class="cls-37" d="M27.4,49.4c-1.4,0-2.3-.7-2.8-2-1.3-1.5-2.1-3-1-5,0-.7,0-1.3,0-2,2.4-1.6,1.5-4.6,2.9-6.7,1.4-2.3,2.7-3.1,5.1-2.2.4,1-.4,1.4-.9,2-.7.7-2.2,1.4-1.1,2.7.8,1,2.1,0,3.2-.2,1-.1,1.8.1,2.3,1.1.1.4.1.9,0,1.3-.8,1.3-2.2,2.1-3,3.5-.4.5-.9.9-1.5,1.3-2.2,1.1-2.6,3.1-2.5,5.3,0,.5-.3.8-.6,1.1Z"/>
        <path class="cls-107" d="M63.5,48.4c0-2.5,3.6-3.2,3-6,.8-1,1.6-1.9,2.4-2.9,0-1.3.8-1.7,1.9-2,.3,0,.5,0,.7-.2.6-.5,1.2-.8,2-.7.5.1.9.4,1.3.7.7,1.5.1,2.8-.4,4.2-.5,1.1-1.2,1.9-2.4,2.1-2.3,1-3.4,3.2-4.9,5-1.2,1.5-1.4,3.3-1.5,5.1-.3,1.5-.7,2.9-1.9,3.9-1,.5-2,.6-3,0-.7-.5-.9-1.2-.9-2,0-1.1.8-1.8,1.5-2.5.2-.2.3-.5.3-.9.6-1.4.9-2.9,1.9-4.1Z"/>
        <path class="cls-9" d="M34.6,37.5c-.4-.8-1.2-1-2-1.1-2.1-1.5-.2-2,.7-2.8,2.1-.2,3.9-1.4,6-1.6.3,1.2,1.2,1.5,2.3,1.3.5.4,1.2,1.2,1.5,1.1,6.7-2.5,8,1.7,8.6,6.8,0,0-.3.3-.3.3-1.1.3-2.1-.2-3-.7-.5-.3-1-.7-1.6-1-1.6-1.1-3.5-1.3-5.3-1.7-1.7-.6-3.3-.4-5,0-.7,0-1.3-.1-1.8-.6Z"/>
        <path class="cls-3" d="M115.5,89.4c-1.6.5-3.4,2.3-4-1-.9-.7-2.3.1-3-1h0c-1.2-1.3-.3-2.7-.3-4.1.1-1,.3-1.9.7-2.8,1.1-1.7,2.6-2.8,4.6-3.1,2.9,1.5,2.7,4.6,1.7,6.3-1.3,2.3,0,3.8.3,5.7Z"/>
        <path class="cls-18" d="M93.5,115.3c1-2.3,2-4.7,3-7,1.3-.7,2.7-1.1,4,0-1.3,2-.9,4-.2,6.1.5,1.4-.2,3.1-1.8,2.7-1.7-.5-4.9,2.7-5-1.8Z"/>
        <path class="cls-213" d="M59.5,119.3c-.5-1.3,1-2.7,0-4-.7-2.4,0-4,2.4-4.9,2.2,0,4,.6,3.7,3.2-.2,1.8.9,2.6,1.9,3.7.2,2.9-1.1,4.2-4,4-1.1-1.2-3-.6-4-2Z"/>
        <path class="cls-130" d="M52.5,103.4c-.9.4-1.8.8-2.6-.3-1-1.4-.7-4.7-4.3-2.3-1.3.8-.2-3-2-4.2-2.4-1.6,2.3-1.5,1-3.1.7-.9,1.7-1,2.7-.8.7.2,1.3.5,1.8,1.1.6,1,1,2.1,1.4,3.1.6,1.4,1.3,2.7,1.9,4.1.3.8.7,1.7,0,2.5Z"/>
        <path class="cls-211" d="M128.5,31.4c3.6,1.9,5,8.5,3,14-1.3-.7-2-1.9-2.7-3.1,0-3.3-5-3.2-4.6-6.8.6-1,1.7-1.2,2.6-1.8.9-.6,1.2-1.5,1.7-2.4Z"/>
        <path class="cls-211" d="M122.5,27.4c1.3-.7,2.6-1.5,3.9-2.1,1.7-.7,3.9-1.9,5,0,1.4,2.3-1.7,2.2-2.8,3.1-1.1.9-1.1,1.9-1.2,3.1-.7.9-1.7,1.1-2.7,1.1-.7,0-1.4-.2-2.1-.6-.9-1.4-1.2-2.9-.2-4.4h0Z"/>
        <path class="cls-141" d="M100.5,108.3h-4c.1-1.4,3.1-.8,2-3-.4-.4-.5-1-.4-1.5,2.5-3,5.5-4.4,9.4-2.5-.6,4.1-4.6,4.8-7,7Z"/>
        <path class="cls-10" d="M47.7,93.3c-1,0-2.1,0-3.1,0-.1-2.6-.9-4.8-4-5,0-.3,0-.7,0-1,.7-.9,1.8-1.6,1-3-.2-1.9-.7-3.8,0-5.7,3.2-.2,2.3,2.9,3.6,4.3.4,1.1.7,2.2,1.2,3.2.5,1.3,1.1,2.5,1.5,3.8.3,1.1.7,2.2-.1,3.3Z"/>
        <path class="cls-37" d="M45.6,29.4c.3-1.7-3-2.6-1.5-4.2,1.1-1.2,3.4-1.8,5-1.2,2.5.8,2.5,3.2,2.4,5.4-2,1.5-4,1.4-6,0Z"/>
        <path class="cls-71" d="M107.5,101.3c-3.3,0-6.4.7-9,3-1.3.8-2.5.9-3.5-.6-.5-2.3.6-3.6,2.6-4.4,3.6.8,7.8-1.9,10.9,2-.3,0-.7,0-1,0Z"/>
        <path class="cls-274" d="M62.5,111.3c-2.6.2-1.9,2.7-3,4-2.3.8-4.3,3.3-7.8,1.1,1.3-1.1,2.6-2.1,3.8-3.1.7-1.6,1.7-2.8,3.2-3.6,1.2-.4,2.4-.5,3.5.3.3.2.4.5.4.8,0,.3,0,.5-.1.5Z"/>
        <path class="cls-247" d="M33.6,34.4c-.6.5-2.2.6-1,2-1.2,2.7-3.9,1.5-4.7.6-1-1.2-.6-3.5,1.6-4.4.7-.3,1.4-.8,2.1-1.2.7,0,1.3,0,2,0,.7,1,.9,2,0,3Z"/>
        <path class="cls-35" d="M62.5,111.3c0-.4,0-.7,0-1.1.2-.1.4-.2.6-.3,1.6-.1,3.6.6,4.5-1.6,2.6.4,1.1,1.9.5,2.7-1,1.4-1.6,2.5.4,3.3-.3,1-.7,2-1,3-2.6,0-5.3.2-2.9-3.8,1-1.7-.9-1.9-2.1-2.2Z"/>
        <path class="cls-199" d="M45.6,29.4c2,0,4,0,6,0-.3,1.8.9,5.3-3.1,2.6-1.5-1-3.2-.4-4.8-.6-1.4-.8-3.4,2.2-4.5-.7.4-2.5,1.8-2.2,3.5-1.3,1,0,2,0,3,0Z"/>
        <path class="cls-97" d="M131.5,53.4c-5.5,0-4.5,4.9-6,8-.3.4-.6.4-1,0-.3,0-.6,0-.9,0-.2-.2-.3-.3-.5-.5-.4-3.4,2.1-5.8,3.1-8.7.2-.4.4-.8.6-1.2.6-.9,1.1-1.9,2.4-2,1.1.4,1.5,1.5,2.2,2.3,0,.7,0,1.3,0,2Z"/>
        <path class="cls-213" d="M58.6,110.1c-.7,1.3-1,3.1-3.1,3.2-2.7.5-2.6.5-2.5-2.2,0-.6-1-1.2-1.5-1.8.6-.7,1.4-.9,2.3-.9,1.2.2,2.4.4,3.7.4.6.2,1.1.6,1,1.3Z"/>
        <path class="cls-37" d="M22.6,29.4c1.3-.6.8-2.7,2.5-2.9,1.2-.1,2.9,1.2,2.2,1.5-3.4,1.5-1.7,6.6-5.6,7.4-.9-2.2-.4-4.2,1-6Z"/>
        <path class="cls-37" d="M42.6,29.4c-1.4,0-2.9,0-3,2,.3.2.3.5.2.7,0,.2-.2.3-.3.3-1.9.9-3.7,2.3-6,2,0-1,0-2,0-3,3,1.2,4.5,0,5-3-.2-.9,0-1.2,1-1,1.4,0,2.4.7,3,2Z"/>
        <path class="cls-266" d="M105.5,29.4c1.5.3,4.5-.8,4.1,1.7-.5,3-3.8,2.2-6.1,2.3-.1-1.7,1.4-2.6,2-4Z"/>
        <path class="cls-71" d="M22.6,29.4c0,2.1.2,4.1-1,6-2.8,1-1.9-1.2-2-2.3-.2-2.2.2-3.9,3-3.6Z"/>
        <path class="cls-51" d="M39.6,27.4c-.3.3-.7.7-1,1-.7,0-1.3,0-2,0-.7.6-1.3.6-2,0-1-.9-1.4-2.2,0-2.6,1.8-.5,4.2-1.5,5,1.6Z"/>
        <path class="cls-141" d="M115.4,103.9c-.2.8-.4,1.9-1.7,1.7-1.9-.2-2.1-1.7-2.2-3.3-.1-1.6.9-.9,1.5-1,1.6,0,2.6.6,2.4,2.5Z"/>
        <path class="cls-118" d="M119.3,67.1c0,.8,0,1.5.1,2.3-.3,1.3,1.1,2.7,0,4,0,0,0,0,0,0-1.5.1-2.7-.3-4-1-.3-.3-.6-.7-.7-1.2-.1-1,.3-1.8,1-2.5,1.1-.8,2-1.8,3.6-1.6Z"/>
        <path class="cls-253" d="M57.8,109.2c-1.1.6-2.1.8-3.2,0-.6-.8-1.7-1-2-2,.3-.9.7-1.9,1-2.8.8-.8,1.5-.2,2.3.2.7.4,1.5.9,2,1.5.2.4.4.8.5,1.2,0,.7,0,1.3-.6,1.8Z"/>
        <path class="cls-196" d="M76.5,31.4c1.3,0,2,.7,2,2-1.3,1.3-2.6,1-4,0-.9-.2-2.7,0-2.4-.8.7-2.1,2.6-1.9,4.4-1.2Z"/>
        <path class="cls-261" d="M39.6,88.4c2.3,2.3-.6,4.1-.6,6.2-1.5-2.2-2.4-4.4.6-6.2,0,0,0,0,0,0Z"/>
        <path class="cls-170" d="M59.5,119.3c1.7,0,3.2.2,4,2-2.4,0-4.8,0-7.6,0,.6-2.8,2.4-1.6,3.6-2Z"/>
        <path class="cls-63" d="M55.5,105.8c-.7-.4-1.3-.9-2-1.3-.4-.4-.7-.8-1.1-1.1-.2-.7-.4-1.4-.7-2,.2-.8,0-1.9,1-2.4,2.6-.3,2.6,2.1,3.6,3.5.3,1.3.2,2.5-.9,3.4Z"/>
        <path class="cls-129" d="M84.5,114.3c-1.3-1.4-1.9-3.4-.2-4.1,1.8-.7,3.5.7,3.2,3.1-1.1,0-2.3-.2-3,1Z"/>
        <path class="cls-236" d="M131.5,51.4c-1.1-.4-1.7-1.2-2.1-2.3-.7-.7-.7-1.6-.6-2.5.5-1.4-.4-3.1.9-4.3,1.2.6,1.9,1.6,1.9,3,0,2-.8,4,0,6Z"/>
        <path class="cls-187" d="M24.6,51.4c0,2.4,2.3,4.4,1,7-.7-.3-1.3-.7-2-1-.8-1-.8-2,0-3,0-1.1-.2-2.3,1-3Z"/>
        <path class="cls-30" d="M124.5,31.4c1,0,2,0,3,0,.3,0,.7,0,1,0,.6,1.3,1.6,2.8-1,3-2,0-4,0-3-3Z"/>
        <path class="cls-273" d="M64.5,42.4c-.6,1.2-1.4,2.2-2.9,1.8-1.4-.4-1-1.7-1.1-2.8,1.2.8,3.3-1.9,4,1Z"/>
        <path class="cls-232" d="M74.6,33.4c1.3,0,2.6,0,4,0,.7.7,1.3,1.3,2,2-1.5,1.5-3.3,1.3-5.1.8-.5-.2-.9-.5-1.1-1,0-.6.2-1.2.3-1.8Z"/>
        <path class="cls-260" d="M25.6,70.6c.6,0,1.3.5,1.5,1.3.2,1.1-.6,1.4-1.5,1.4-.9,0-1.7-.2-1.8-1.2-.1-1,.4-1.5,1.7-1.5Z"/>
        <path class="cls-118" d="M113.5,77.4c-.7,1.8-2.6,2.2-4,3-.7-.2-1.2-.6-1.3-1.4,0-.5.2-.8.6-1.2,1.8-.7,2.4-3.3,4.7-3.2.4.1.8.3,1.1.7-.3.7-.7,1.3-1,2Z"/>
        <path class="cls-230" d="M115.3,71.4c0,.3.1.7.2,1-.3.3-.6.7-1,1-2.1,1.2-2.8-.4-3.5-1.8-.2-.8-.2-1.5.2-2.2,2.4-1.4,3,.7,4,2Z"/>
        <path class="cls-156" d="M70.8,37.6c-.4.9-.9,1.6-1.9,2-2.7-.2-1.8-2.2-1.1-3.1,1.5-1.8,1.8,1,3,1.1Z"/>
        <path class="cls-194" d="M39.5,32.4c0-.3,0-.7,0-1,1.3.4,2.7-1.8,4,0-.7.7-1.3,1.3-2,2-1.1.5-2,.7-2-1Z"/>
        <path class="cls-125" d="M23.6,54.4c0,1,0,2,0,3-1.2-.2-2.9.3-2.7-1.7.2-1.6,1.7-1.1,2.7-1.3Z"/>
        <path class="cls-211" d="M100.2,26c0,1.1-.3,1.7-1,1.8-1,.1-1.6-.6-1.4-1.5,0-.5.7-1.2,1.2-1.2.4,0,.9.7,1.2.9Z"/>
        <path class="cls-257" d="M111.5,71.2c.9.8,1.5,2.2,3,2.2,0,.7,1.1,1.3,0,2-.3,0-.7,0-1,0-.9-1-2.7.2-3.3-1.4-.2-.9.2-1.7.8-2.4.2-.1.4-.2.6-.4Z"/>
        <path class="cls-37" d="M20.9,25.6c.7,0,1.4.1,1.3.9,0,.5-.7,1-1.2,1.3-.1,0-.8-.5-1-.9-.3-.7,0-1.2.8-1.4Z"/>
        <path class="cls-298" d="M27.6,65.4c.2-.8.3-1.5.5-2.3.3.1.7.2.8.4.9,1.1.8,2.1-.3,2.9-.3-.3-.7-.7-1-1Z"/>
        <path class="cls-89" d="M52.6,107.3c1.3,0,2,.7,2,2-1,0-2,0-3,0,0-.8.2-1.6,1-2Z"/>
        <path class="cls-280" d="M73.1,37.3c-.5,0-1.1,0-1.6,0,0-1.9,1.4-2,2.8-2.1,0,0,.3.3.3.3.4,1.3-.6,1.5-1.4,1.8Z"/>
        <path class="cls-37" d="M34.6,28.4c.7,0,1.3,0,2,0-.1,1-.4,2.1-1.7,1.8-1.3-.2-.5-1.2-.3-1.8Z"/>
        <path class="cls-28" d="M91.1,46.6c6.3,1.5,6.8-5,10.2-7.5,1.7-1.3,2.4-3.8,5.2-3.6.2.2.3.5.3.8,0,.3,0,.4,0,.4-2.2,3.1-4.7,5.9-6.8,9.1-1.5,1.7-2.5,3.9-4.6,5.2-1.5.5-2.9.2-4-1-.5-.6-.7-1.3-.7-2.1,0-.5.2-.9.5-1.4Z"/>
        <path class="cls-28" d="M81.3,35.6c5.8-.2,8.6,2.6,9.1,9.1-1,.2-1.8-.3-2.4-1-1.7-2.6-3.9-4.7-6.7-6.2-.3-.7-.4-1.3,0-1.9Z"/>
        <path class="cls-270" d="M129.6,42.4c-.5,1.3,1.7,2.7,0,4-1.3-.3-1.8-1.4-2.1-2.5-.4-2-1.7-3.1-3.5-3.7-.4-.2-.7-.5-1-.8-.6-.6-1.2-1.1-1.8-1.7-.6-.6-1.1-1.3-.7-2.2.7,0,1.4-.1,2.1-.2.7-.5,1.4-.5,2,0,1,2.9,5.9,2.9,5.1,7Z"/>
        <path class="cls-38" d="M120.3,35.5c.5.6,1,1.2,1.4,1.8-1.5,1.8-3.6,1.4-5.6,1.3-.5,0-1.1-.2-1.6-.4-1.5-1.4-4-1.2-5.4-2.9,3.7-2.3,7.4,0,11.1.2Z"/>
        <path class="cls-262" d="M88.7,43.1c.6.5,1.1,1,1.7,1.5.3.6.5,1.2.8,1.9,0,.2.1.4.3.6-.8,2,0,4.4-1.3,6.3-.9,1.3-1.9,2.4-3.7,2.1-.6-.5-.8-1.2-.9-2,0-.7.1-1.4.5-2,1.2-1.6,2.4-3.1,2-5.3-.1-1.1-.5-2.3.7-3.1Z"/>
        <path class="cls-15" d="M109.3,35.3c1.8.7,4.5-1.1,5.3,2.1-2.3,2-4.9,1.6-7.5.7-.6-.3-.8-.8-.6-1.5,0-.4,0-.8,0-1.1.9,0,1.8,0,2.7-.1Z"/>
        <path class="cls-182" d="M124.5,35.4c-.7,0-1.3,0-2,0-.3-1.3-.7-2.6-1-3.9.3-.3.7-.3,1,0,.7,0,1.3,0,2,0,0,2,1.7,2.3,3,3-.7,1.2-1.9,1-3,1Z"/>
        <path class="cls-238" d="M122.5,31.4c-.3,0-.7,0-1,0-1.4-.1-2-.8-1.9-2.2.2-1.9,1.6-1.7,2.9-1.7,0,1.3,1,2.7,0,4Z"/>
        <path class="cls-138" d="M81.3,35.6c.1.6.2,1.1.4,1.7-1.7,2-3.9.2-5.8.7-.5,0-.9-.2-1.3-.5-.5,0-.9-.1-1.4-.2.5-.6,1-1.2,1.4-1.8,2,0,4,0,6-.1.2.2.4.3.7.2Z"/>
        <path class="cls-216" d="M81.5,104.3c-1.2.7-2.5,1.2-4,1-1.3-.9-.7-3-2.2-3.7-1-1-1.7-2.1-2.3-3.3-.1-.5-.2-.9-.1-1.4.4-1.7,1.1-3.1,2.7-4,.5-.1,1.2-.3,1.3,0,.8,1.6,1.6.7,2.5.2,1.4.8,2.4,2,3.6,3.1.4.6.6,1.3.6,2,.2,2.3-1.7,4-2,6.2Z"/>
        <path class="cls-195" d="M57.7,107.4c-.3-.2-.4-.4-.3-.8-.2-.5-.2-1.2,0-1.3,3.5-.2,4.3-3.8,6.6-5.4,1-.7,2.2-1.2,3.4-1.5,1-.2,2-.1,2.9.4.4.3.6.7.7,1.2,0,.8-.3,1.3-.9,1.7-.9.9-3.3,0-2.8,2.5-1.1,1-2.2,2-3.3,3-2.1.9-4.2,1.9-6.4,0Z"/>
        <path class="cls-115" d="M81.5,104.3c-2.7-2.4,1.5-3.7.9-5.8,1.6-1.1,2,.4,2.8,1.2.4.9.9,1.7,0,2.7-1,1.2-1.2,4-3.8,2Z"/>
        <path class="cls-16" d="M69.7,101.4c.3-.3.6-.7.8-1,.7-1.3.4-3.6,2.9-3.2,0,.4,0,.8,0,1.2.6.8.8,1.6.4,2.5-.2.2-.3.3-.5.5-1.2,0-2.5.4-2.6,1.7-.5,4.7-1.5,1.1-2.4.2-.5-1.2.5-1.5,1.2-1.9Z"/>
        <path class="cls-254" d="M57.7,107.4c2.1,0,4.3,0,6.4,0-.3.8-1.6.9-1.4,2,.3.4.2.7-.3.9,0,0,0,0,0,0-1.3,0-2.6,0-3.8-.1-.3-.3-.6-.6-.9-.9,0-.6,0-1.2-.1-1.8Z"/>
        <path class="cls-122" d="M93.6,106.4c-.2,1.6-.9,3-2.6,2.8-2.1-.3-3.3-1.7-3.4-4,.4-.4,1-.5,1.5-.4.5.1,1,.4,1.4.8.4.3.8.4,1.3.2.5,0,1,0,1.5.2.1.1.2.3.3.4Z"/>
        <path class="cls-297" d="M89.4,105.7c-.6-.2-1.2-.4-1.8-.5-.7-.9-1.5-1.9-2.2-2.8-.3-.7-.5-1.4-.8-2,.3-.6.5-1.2,1.3-1.3,1.2.2,1.9,1.1,2.7,1.7.3.3.6.7.9,1.1.6,1.3,1.3,2.6,0,3.9Z"/>
        <path class="cls-16" d="M75.5,101.3c2.7.3,1.8,2.4,2,4-3.4.7-1.8-3.5-4-4,0,0,0,0,0,0,.7-.6,1.3-.6,2,0Z"/>
        <path class="cls-122" d="M95.5,103.3c.7,1.2,1.9,1,3,1.1,0,.3,0,.7,0,1-1.6.4-3.3.7-4.9,1.1,0,0-.3-.3-.3-.3-.7-1.3,0-2.2.9-3,.5-.2.9-.1,1.3.2Z"/>
        <path class="cls-292" d="M62.4,110.2c0-.3.1-.6.3-.9,2,1.3,2.9-2,4.8-1-.3,4.2-3.3,1.5-5.1,1.9Z"/>
        <path class="cls-105" d="M69.7,101.4c-.4.6-.8,1.3-1.2,1.9-.4.4-.8.7-1.2,1.1-.6-.1-1.5-.3-1.1-1,.7-1.3,1.8-2.2,3.5-1.9Z"/>
        <path class="cls-296" d="M95.5,103.3c-.3,0-.6.1-.8.1-2.8-.8-1.2,2.9-3.1,3-.2.9-.6,1.1-1.2.3-.2-1.7-.4-3.5-.2-5.3.3-.4.6-.6,1-.8,1.3-.5,2.9-.8,2.9-2.7.3-.9.8-1.6,1.8-1.9,1.3.3,2.2.8,1.8,2.4,0,.3,0,.6,0,.9,0,1.7-2.5,2.1-2.1,3.9Z"/>
        <path class="cls-214" d="M97.6,98.4c-.7-.7-1.4-1.4-2.1-2.2-1.3-1-1.9-2.5-2.4-4,0-.5.2-.9.5-1.3.7-.4,1.4-.5,2.1-.4,2.1.9,4.1,1.9,3.9,4.8,0,1.4-.8,2.4-2,3Z"/>
        <path class="cls-282" d="M99.6,95.4c-1-1.7-2.4-3-4-4.1-1-1-.5-1.7.4-2.4.7-.3,1.4-.3,2.1,0,1.4.8,1.8,2.5,3,3.5.3.3.5.7.6,1.1-.7.6-1.4,1.3-2.1,1.9Z"/>
        <path class="cls-299" d="M106.6,88.4c-1.2,2.1-2.5,4.1-4.8,5.1-.2-.1-.4-.2-.5-.3-.8-1.9.7-3,1.7-4.3,1.1-.9,2-2.1,3.7-1.7.3.3.4.5.3.8,0,.3-.2.4-.2.4Z"/>
        <path class="cls-29" d="M106.6,88.4c0-.4-.1-.8-.2-1.2-.4-1.2,0-2.1.7-3.1.6-.7,1.3-1.2,2.3-1-.3,1.4-.6,2.8-.8,4.3-.6.3-1.3.7-1.9,1Z"/>
        <path class="cls-48" d="M108.5,87.4c1.1,0,2.3-.2,3,1-1.3.6-2.8,1.6-3-1Z"/>
        <path class="cls-97" d="M123.6,61.5c-1.2,1.8-.2,5.3-4,4.9-.3-.4-.4-.8-.4-1.2.8-1.9,1.5-3.9,4.1-3.9l.3.3Z"/>
        <path class="cls-82" d="M124.5,61.4c.3,0,.7,0,1,0,2.3.4,2.3,1.8,1.3,4.1-.9-1.6-1.6-2.8-2.2-4.1Z"/>
        <path class="cls-201" d="M119.5,65.4c0,.3,0,.7,0,1-.2.2-.2.5-.2.7-1.2.5-1.4,2.2-2.8,2.3-1-.6-1.6-1.4-.7-2.5.8-.7,1.6-1.4,2.5-1.8.4,0,.8,0,1.1.3Z"/>
        <path class="cls-97" d="M119.5,73.4c.4-1.3-1.8-2.7,0-4,1.4,1.3,1.4,2.7,0,4Z"/>
        <path class="cls-75" d="M29.7,56.1c-1-1.4-.9-3-1.2-4.6.3-.3.6-.6,1.1-.6.4,0,.9.1,1.3.3.9.7,1.7,1.4,2.3,2.4.4.9.4,1.8,0,2.7-.5.9-1.2,1.4-2.3,1.4-.7-.3-1-.9-1.2-1.6Z"/>
        <path class="cls-134" d="M29.6,51.4c-.4,0-.7,0-1.1,0-.4-.7-.7-1.4-1.1-2.1.1-.3.1-.6,0-.9.4-1.3-.3-3.5,2.4-3,.7.9.9,1.9.9,3,0,1.1-.4,2.1-1.1,3Z"/>
        <path class="cls-187" d="M29.7,56.1c.4.4.8.8,1.1,1.2.5.4,1.1.9,1.4,1.5.3,1,.2,1.9-.6,2.6,0,0,0,0,0,0-3.3-.8-1.6-3.4-1.9-5.3Z"/>
        <path class="cls-144" d="M23.6,42.4c.3,1.7.7,3.3,1,5-2.5-.4-2.7-1.4-1-5Z"/>
        <path class="cls-53" d="M48.7,40.4c1.2-.2,1.9.6,2.6,1.2,0,.3,0,.6,0,.9,0,2.2,1.3,3.7,2.8,5.1.2.7.4,1.4.5,2.1.2,1.2.4,2.5.3,3.7,0,1-.3,2-.9,2.8-.1,0-.4.2-.4.2-2.9-5-7.7-9.4-4.8-16.1Z"/>
        <path class="cls-190" d="M53.7,49.5c0-.7-.2-1.4-.3-2-.3-.4-.2-.7.3-1,1.3,2.3,2.7,4.6,4,6.9.7,1,2.3,1,2.9,2.2,0,.6,0,1.2,0,1.9-.4,1-.5,2.3-1.9,2.5-5.3-1.8-3.6-6.8-4.9-10.4Z"/>
        <path class="cls-197" d="M53.7,46.5c0,.3-.2.7-.3,1-2.4-.9-3.5-2.3-2.2-4.9,1.1,1.1,2,2.3,2.5,3.9Z"/>
        <path class="cls-64" d="M60.6,55.5c-1.5,0-2.7-.5-2.9-2.2,1.2,0,2.4,0,3.6,0-.2.7-.5,1.5-.7,2.2Z"/>
        <path class="cls-64" d="M63.5,48.4c0,1.6-.7,2.9-1.9,4.1-.2-1.7.2-3.2,1.9-4.1Z"/>
        <path class="cls-40" d="M44.4,83.6c-1.5-1.3-1-3.7-2.8-4.9-1.3-.7-.4-2.3-1.2-3.2-1.3-.8-1.3-2.2-1.7-3.5,0-.2.1-.4.2-.6.2-1.4-1.8-2.7-.4-4.3.6-.3,1.3-.3,1.9,0,.8.5,1.3,1.3,1.8,2,.5.7.9,1.5,1.3,2.3.6,1.4,1,2.9,1.3,4.4.2.9.5,1.7.7,2.6.2,1.3.7,2.6.4,4-.3.7-.8,1.1-1.5,1.2Z"/>
        <path class="cls-120" d="M40.5,67.4c-.6,0-1.3,0-1.9,0-.8,0-1.5-.3-2.1-.8-.3-.6-.7-1.2-1-1.8-1.2-1.8-1.9-3.8-1.8-6,.2-.8.6-1.4,1.4-1.8.5-.1,1,0,1.5.2,1.5,1.9,1.2,4.7,3.5,6.1.8,1.3,1.6,2.6.4,4.1Z"/>
        <path class="cls-69" d="M34.5,58.6c.4,2,1.5,4,1,6.1-.3,0-.6-.2-.9-.3-1.4-1.7-2-3.9-3.1-5.7-.2-.4-.5-.9-.7-1.3.5-.2,1.1-.5,1.6-.7,1.3,0,1.7,1,2.1,2Z"/>
        <path class="cls-225" d="M31.6,58.6c1.7,1.6,2.5,3.6,3.1,5.7-1.6-.4-1.8-2.2-3-3,0-.9,0-1.8,0-2.8Z"/>
        <path class="cls-294" d="M36.5,66.5c.8,0,1.6.1,2.1.8-.4,1.4,1.5,2.5.3,4-.8-1.6-2.5-2.7-2.4-4.8Z"/>
        <path class="cls-133" d="M38.7,72c1,.9,1.5,2.1,1.7,3.5-3.9.5-1.1-2.3-1.7-3.5Z"/>
        <path class="cls-212" d="M41.6,84.4c1.6,1.6,1.1,2.6-1,3,.3-1,.7-2,1-3Z"/>
        <path class="cls-78" d="M34.6,37.5c.6,0,1.1,0,1.7-.1.7-.4,1.4-.5,2.2-.3,1,.4,1.6,1.2,1.7,2.3,0,1.8-.5,3.5-2.1,4.6-.7.3-1.4.4-2.1.3-1.6-.3-1.7-2.2-2.8-3-.3-1.2.6-2,1.2-2.9,0-.3,0-.6.1-.8Z"/>
        <path class="cls-142" d="M33.5,41.4c1.8-.4,1.2,1.5,2,2,1,1.2.4,2.2-.5,3-2.8.5-3.2-2.1-4.6-3.4,0-.2-.1-.4-.2-.7l.9-1c.8-.6,1.6-.6,2.3,0Z"/>
        <path class="cls-14" d="M29.5,45.4c-.7,1-1.4,2-2.1,3.1-1.1-3-1.2-5.5,2.8-6.1,0,0,.3.2.3.2.3.3.4.6.3,1-.3.7-.7,1.4-1.4,1.8Z"/>
        <path class="cls-127" d="M33.5,41.4c-.8,0-1.6,0-2.3,0,.2-2,1.4-2.9,3.3-3,.2,1.2-.4,2.1-.9,3.1Z"/>
        <path class="cls-265" d="M66.5,48.4c0-3.1,3.7-3.5,4.4-6.1.1,0,.4,0,.4.2.1.3.2.6.2.9,1.9,1.5,2.2,3.3,1.2,5.4-1.2,1.5-.8,3.8-2.5,5-.4.2-.9.2-1.4,0-1.7-1.1-1.9-3-2.3-4.8,0-.2,0-.5,0-.7Z"/>
        <path class="cls-151" d="M71.5,48.4c2.2-1.7-.2-3.3,0-5,.7-.7,1.3-1.3,2-2,1.6-.1,1.8,1.1,2.2,2.2.2,3.4.6,6.8-.4,10.1-.3.5-.7.8-1.3.9-.7-1-1.2-2.4-2.9-1.6,0-1.6-.5-3.2.4-4.7Z"/>
        <path class="cls-271" d="M74.5,43.4c0-.8-.2-1.6-1-2,.3-1.3.7-2.6,1-3.9.3,0,.6,0,1,0,1.3-.9,2.1-.3,2.6,1,0,1.3.6,2.5,1,3.7-.4,2.1-1.2,3.9-2.7,5.5-2.7-.5-.5-3.1-1.9-4.2Z"/>
        <path class="cls-56" d="M59.5,59.4c-.5-1.1-.7-2,1-2,1,0,2,0,3,0,1.3.3,2.1,1,2.3,2.4-.7,1.7-2.1,1.6-3.6,1.3-.8-1-1.9-.3-2.8-.6-.3-.4-.3-.8,0-1.1Z"/>
        <path class="cls-70" d="M65.5,59.4c-1-.4-1.6-1.1-2-2,.3-1.3.7-2.7,1-4,.2-.1.4-.3.5-.4.4.1.8.4,1,.8.5,1,.6,2.1.8,3.2,0,.4,0,.9,0,1.3-.3.6-.7,1-1.4,1.2Z"/>
        <path class="cls-265" d="M65.5,53.4c-.3,0-.7,0-1,0,0-1.9-.3-4,2-5,0,0,0,0,0,0,.9,1.9.9,3.6-1,5Z"/>
        <path class="cls-173" d="M48.7,40.4c-.9,6.1,3.9,10.5,4.8,16.1.9.6,1.1,1.5,1.2,2.4,0,1.6,1.1,2.9,1.1,4.5-.6,1.2-1.1,2.4-1.2,3.8-.3,1.5-.8,2.9-2.8,2.6-1.3-.6-1.5-1.9-1.9-3.1,0-.5-.1-1,0-1.4.3-1.8.4-3.6.4-5.4,0-1.6-.5-3-1.7-4.2-.8-.9-1.6-1.9-2-3.1-.7-4.5-2.6-9,1-13.2l1,1Z"/>
        <path class="cls-146" d="M47.6,39.4c-1.6,4.7,0,9.4,0,14-.2.1-.3.2-.5.3-1,0-2.1.4-2.9-.5-.8-1.5-1.1-3.1-1.9-4.6-.1-.4-.1-.8,0-1.2.4-1,.2-2-.3-2.9-.4-1-1-1.9-1.5-2.8-.3-.7,0-1.7-.8-2.3-.3-.6-.6-1.2-1-1.9.9-1,2-.5,3-.5,2.2.2,4.4.4,6,2.3Z"/>
        <path class="cls-245" d="M41.6,37.1c-1,.2-2,.3-3,.5-.8,0-1.5-.1-2.3-.2,1.7-1.1,3.4-1.8,5.3-.3Z"/>
        <path class="cls-55" d="M48.2,35.5c.3.3.8.5.9.9.1.6-.4.9-.9.7-.4-.2-.6-.7-.9-1,.3-.2.5-.3.9-.5Z"/>
        <path class="cls-8" d="M109.3,83.1c-.6.5-1.1,1-1.7,1.5-.5-.3-.8-.7-1-1.2-.4-1.3-.3-2.6.4-3.8.4-.4.9-.5,1.4-.1.3.3.6.7,1,1,0,.9,0,1.8-.1,2.7Z"/>
        <path class="cls-240" d="M52.6,99.3c-.3.7-.5,1.4-.8,2-.6-1.4-1.2-2.8-1.9-4.1,0-1,0-2.1,1.5-2.1.4.2.6.5.9.8.3.5.6,1.1.8,1.7,0,.6,0,1.2-.5,1.7Z"/>
        <path class="cls-86" d="M47.7,93.3c-.3-1-.6-2-.9-3,.2-.7.5-1.3,1.3-1.5.8,0,1.4.1,1.9.7.6,1.1.7,2.3.3,3.6-.3.7-.7,1.3-1.6,1.1-.4-.3-.7-.6-1.1-.9Z"/>
        <path class="cls-106" d="M48.8,94.2c.3-.3.5-.6.8-.8.7-.6,1.4-.6,2.2-.2.4.8.4,1.5-.3,2.2-.5.6-1,1.2-1.5,1.8-.6-.9-1.7-1.6-1.2-2.9Z"/>
        <path class="cls-200" d="M44.4,83.6c.4-.4.7-.8,1.1-1.1,1.5.5,1.9,1.6,1.7,3-.3.7-.8,1.3-1.7,1-1.3-.6-.8-1.9-1.1-2.8Z"/>
        <path class="cls-249" d="M45.5,86.4c.4-.3.7-.6,1.1-.9,2.8.6,1.9,2.3,1.1,3.9-.2.3-.5.6-.7,1-.5-1.3-.9-2.6-1.4-3.9Z"/>
        <path class="cls-114" d="M119.5,65.4c-.3,0-.7,0-1,0-1.1-3.1,1.8-5,2.4-7.6.6-1,1.4-1.8,1.9-2.8.7-1.2,1.1-2.7,2.6-3.1.8-.1,1.4,0,2,.6-1.4,2.9-2.8,5.9-4.1,8.8-1.3,1.4-2.5,2.8-3.8,4.2Z"/>
        <path class="cls-163" d="M128.3,43.5c.4,1,.8,2,1.3,2.9,0,.9-.1,1.8-.2,2.7-.6.8-1.2,1.7-1.8,2.5-1-.7-1.2-1.8-1.3-2.8,0-1.3,0-2.7.3-4,.3-.8.7-1.4,1.7-1.3Z"/>
        <path class="cls-293" d="M127.5,48.4c0,1.1,0,2.2,0,3.2.1.3,0,.5-.2.8-.6,0-1.3,0-1.9,0-.4-.4-.6-.8-.7-1.3.1-1.7.5-3.1,2.7-2.7Z"/>
        <path class="cls-283" d="M116.5,67.4c-1.1.7,0,1.4,0,2-.4.7-.8,1.3-1.2,2-1.6,0-2.1-2.4-4-1.9-1.5,0-2.2-.7-1.9-2.2,1.3-1.3,3.6-.5,4.5-2.4.7-.3,1.4-.3,2.1,0,1,.7,1.3,1.4.5,2.5Z"/>
        <path class="cls-88" d="M64.5,100.3c-1.4,3.2-4.2,5-7.2,6.3-.8,0-1.5.1-1.8-.8,0-1.5,0-3,0-4.5.2-.1.3-.3.5-.4,1.2-.4,2.4-.5,3.7-.7,1.5,0,2.9-.8,4.4-.3.2.1.3.3.5.4Z"/>
        <path class="cls-110" d="M52.6,99.3c0-.6,0-1.3-.1-1.9,1-1,2.1-.9,3.3-.2,1,1.4,1.1,2.8-.1,4.2,0,0-.1,0-.1,0-1.8.4-1.2-2.5-2.9-2.1Z"/>
        <path class="cls-23" d="M110.5,73.4c1,.7,2,1.3,3,2-1.9.6-2,4.1-4.9,3-.4-.3-.7-.7-.9-1.1-.3-1-.3-1.9,0-2.9.2-.5.4-.9.8-1.2.7-.3,1.4-.3,2,.3Z"/>
        <path class="cls-101" d="M108.5,77.3c0,.3,0,.7,0,1,0,.3,0,.7,0,1-.4,0-.7.1-1.1.2-2,0-2.5-1.7-3.3-3.1,0-.5,0-.9.3-1.3.4-.3.8-.4,1.3-.5,2-.2,2,1.7,2.7,2.7Z"/>
        <path class="cls-83" d="M109.4,67.4c.3.9.9,1.7,1.8,2.1,0,.6.2,1.2.3,1.8,0,.2,0,.4,0,.5-2.4.7-3.3-1.2-4.6-2.5-.4-.5-.8-1.1-1.2-1.7-1.1-1.9-3.4-3.3-2.6-6,.8-1,1.6-.4,2.4,0,.6.4,1.1.8,1.5,1.3.8.8,1.5,1.6,2,2.6.3.6.5,1.2.4,1.9Z"/>
        <path class="cls-279" d="M107.5,68.4c1.3,1.1,2.7,2.2,4,3.3-.3.6-.7,1.1-1,1.6-.7,0-1.3,0-2,0-2.2.1-2.1-1.8-2.6-3.1.1-1,0-2.2,1.6-1.9Z"/>
        <path class="cls-258" d="M106.4,36.6c0,.3.1.6.2.9.5.6.6,1.3.4,2-2.8,1.6-2,6.8-6.6,6.6-.5-.1-.8-.4-1.1-.8,1.8-3.3,3.6-6.8,7.1-8.7Z"/>
        <path class="cls-228" d="M91.6,49.4c1.3.7,2.6,1.1,4.1.9,1.2-.3,1.9.3,2.5,1.3.5,1.2.5,2.4-.1,3.6-2.8,2.1-4.5-1.6-6.9-1.3-.5-.1-.8-.4-1-.9-.1-1.5.6-2.6,1.5-3.6Z"/>
        <path class="cls-258" d="M97.4,51.7c-.6-.5-1.2-.9-1.8-1.4.8-2,1.8-3.9,3.7-5.1,0,0,.3.2.3.2,2.3,1.8.9,3.8.3,5.7-.3.4-.7.6-1.2.7-.5,0-.9,0-1.4-.3Z"/>
        <path class="cls-218" d="M91.6,49.4c-.4,1.3-.7,2.6-1.1,4-.4.2-.9.2-1.2-.1.7-2,1.4-4.1,2.1-6.1,0,.7.1,1.5.2,2.2Z"/>
        <path class="cls-229" d="M77.5,39.4c0-1.3-.7-2-2-2,2-2.2,4.1.8,6.1-.1,4.2-.2,5,3.6,7.1,5.9.2,1.1.5,2.2.7,3.2-2.8.7-4.2-1.8-6.4-2.6-.4-1.9-1.9-1.9-3.3-2.1.4-1.8-1.6-1.4-2.1-2.3Z"/>
        <path class="cls-183" d="M116.5,67.4c0-.8-.2-1.6-1-2-.6-1.1-1.1-2.2-2.4-2.5-1.4-.7-2.2-2-3.2-3.1-.5-.7-1-1.5-1.2-2.4-.1-2,0-3.9.4-5.8.8-1.3,1.3-2.6.4-4-.4-.8-.8-1.7-1-2.6-.2-1.3,0-2.6.8-3.6,1-.9,2.3-1,3.5-1,2.5-.1,5.3,1.2,7.5-1.3,1.1-.4,2.1-.9,3.3-.5.2.1.3.3.1.6.3.6.6,1.2.5,1.9-.5,1.8,0,3.9-1.3,5.5-.9.7-2,.3-3,.4-1,0-1.8.8-2.7.9-1.1-.2-1.4-1.2-2.1-1.8-1.1.1-.8,1-1,1.6-.3,1.2-.4,2.4-.6,3.6-.2,1.2-.2,2.3.8,3.2.3.3.6.6.9.8.7.7,1.3,1.5,2.1,2.1.7.3,1.4,0,2-.3.6-.2,1.1-.2,1.7,0,.1.1.3.3.4.4.6,3.3-2.4,5.2-3,8-.4.9-1,1.7-2,2Z"/>
        <path class="cls-158" d="M123.5,41.4c0-.8.1-1.6.2-2.4,2.7.3,4.3,1.8,4.6,4.5-.3.3-.6.6-.8.9-.5.8-1,1.6-2.1,1.5-2.5-.7-.8-3.2-1.8-4.5Z"/>
        <path class="cls-268" d="M123.5,38.4c-1,.3-2,.7-3,1-1.6,1-3.2,1.4-4.9.4-.6-.8-.7-1.5,0-2.4,2.1,0,4.2,0,6.3-.1.8,0,1.5.1,1.7,1.1Z"/>
        <path class="cls-183" d="M115.5,37.4c0,.7,0,1.3,0,2-.9,1.1-2.2.9-3.4,1-1.5-.1-2.8.2-3.8,1.4-.7.2-1.4.2-2.1-.3-.3-.7-.3-1.4.2-2.1,0-.6,0-1.3.1-1.9,2.6,0,5.3,0,7.9,0,.3,0,.6,0,.9,0Z"/>
        <path class="cls-59" d="M83.5,43.4c2.9-.9,3.8,2.2,5.9,3,0,2.3,0,4.4-2.8,5.1-.2,0-.4,0-.7,0-3.3-.9-2.8-4.1-3.8-6.4,0-1,0-1.9,1.4-1.6Z"/>
        <path class="cls-80" d="M89.3,53.3c.4,0,.8,0,1.2.1,0,0,0,0,0,0,1.3.6,1.8,1.6,1.2,3-1.8,1.6-2.5,4.1-4.7,5.4-2.2,0-2.4-1.4-2.4-3.1.2-1.4.7-2.5,2-3.2.9-.7,1.8-1.5,2.7-2.2Z"/>
        <path class="cls-290" d="M86.6,55.5l-1.1,3.3c-.8.7-1.5,1.2-2.4.1-.6-1.1-.6-2.3,0-3.5.9-1.1,1.7-2.4,3.4-2.1v2.1Z"/>
        <path class="cls-22" d="M86.5,53.4c-1,.7-1.4,2.2-2.9,2.1-1.3-3-.8-4.7,2.9-4,0,0,0,0,0,0,0,.6,0,1.3,0,1.9Z"/>
        <path class="cls-193" d="M85.5,99.3c-.3.3-.6.7-.9,1-.7-.6-1.4-1.2-2.1-1.8,0-.6,0-1.3,0-1.9-.6-1.2-.3-2.5,0-3.7.4-1.3,1.2-2.2,2.7-2.3.7,0,1.4.4,1.8,1,.3,1.7.7,3.4,1.9,4.7,0,2.1-1.9,2.3-3.2,3Z"/>
        <path class="cls-128" d="M73.5,97.2c-1.6.5-1.7,2.4-2.9,3.2,0-.4,0-.7-.1-1.1-.7-.8-1-1.7-.8-2.7.4-1.8,1.7-2.8,3.1-3.9.8-.5,1.7-.9,2.7-.6.3.2.4.5.4.8,0,.3,0,.5-.1.5l-2.2,3.9Z"/>
        <path class="cls-96" d="M83.5,93.4c-.4,1.1-.8,2.2-1.2,3.3-1.7-.4-2.6-1.5-2.9-3.2-.3-.3-.4-.7-.3-1.1.3-.6.7-1,1.3-1.3.4,0,.8,0,1.2,0,1,.5,1.2,1.6,1.9,2.3Z"/>
        <path class="cls-300" d="M79.5,92.4c0,.3,0,.7,0,1-1.3,3.8-2.5-.3-3.8,0,0-.3,0-.7-.1-1,.1-.6.5-1.1,1.1-1.4.4-.1.8-.2,1.2-.1.8.2,1.5.7,1.7,1.6Z"/>
        <path class="cls-224" d="M75.5,101.3c-.7,0-1.3,0-2,0,0-1,0-2,0-3,1.3.5,1.9,1.6,2,3Z"/>
        <path class="cls-92" d="M67.5,99.3c-1,.3-2,.7-3,1,0,0,0,0,0,0-1-1-1.5-2.3-1.6-3.7,0-.7.4-1.3,1-1.8.4-.2.8-.4,1.3-.6.9-.2,1.9-.5,2.7.4.5.9.7,1.8.6,2.8-.1.8-.5,1.4-1,1.9Z"/>
        <path class="cls-65" d="M67.5,99.3c0-.7,0-1.3,0-2,.6-.6,1.1-1.2,1.9-1.4.4,0,.8,0,1,.4,0,1,0,2,0,3-1,0-2,0-2.9,0Z"/>
        <path class="cls-84" d="M90.5,101.3c.6,1.8.3,3.6-.2,5.4-.3-.3-.6-.7-.9-1-.3-1.5-.6-2.9-.9-4.4.4-1,1-1.5,2.1-1.2.3.4.3.8,0,1.2Z"/>
        <path class="cls-297" d="M91.5,106.4c1.2-.8-.2-4.4,3.1-3-.4.9-.9,1.8-1.3,2.7-.6,0-1.2.2-1.8.3Z"/>
        <path class="cls-237" d="M85.5,99.3c1-1,2-2,3-3-.7-1.6-.2-2.9.8-4.1.9-.3,1.4.2,1.8.8.6,1.4.6,2.8.2,4.3-.1.5-.4.9-.6,1.3-1.1.9-2.1,1.8-3.2,2.7-.7-.7-1.3-1.3-2-2Z"/>
        <path class="cls-205" d="M87.5,101.3c.7-1.3,1-3,3-3,.5.7.5,1.3,0,2-.7.3-1.3.7-2,1-.3,0-.6,0-1,0Z"/>
        <path class="cls-1" d="M93.5,92.3c1.8.7,2,2.3,2,3.9-.3.7-.7,1.4-1,2.1-.4.3-.8.3-1.2.2-.6-.3-1-.8-1.2-1.5-.1-1.1.2-2.1.4-3.2.2-.6.4-1.2,1-1.6Z"/>
        <path class="cls-154" d="M92.5,97.3c.3.3.7.7,1,1,1.5,2.5-1.1,2.1-2,3h-.5s-.5,0-.5,0c0-.3,0-.7,0-1,0-.7,0-1.3,0-2,0,0,0,0,0,0,.6-.5.9-1.6,2-1Z"/>
        <path class="cls-297" d="M91.5,101.3c.6-1,2.2-1.4,2-3,.3,0,.7,0,1,0,1.3,3.3-1.2,2.8-3,3Z"/>
        <path class="cls-27" d="M96.6,89.3c-.8.4-1,1.2-1,2-.7,0-1.4,0-2.1,0-1.2-.2-2-1-2.8-1.9-.6-.8-.9-1.6-.7-2.6.8-1.5,2.2-1.8,3.8-2,2.1.7,3.9,1.7,2.7,4.4Z"/>
        <path class="cls-93" d="M91.5,89.4c1,.4,1.6,1.1,2,2,0,.3,0,.7,0,1,0,.7,0,1.3,0,2-1.4.7-2.1-.2-3-1-.3-.3-.7-.7-1-1-.3.4-.7.4-1.1.1-.5-1.3.3-2,1.3-2.7.6-.3,1.2-.5,1.8-.5Z"/>
        <path class="cls-177" d="M103.5,89.4c-.8,1.2-1.6,2.5-2.3,3.7-2.5-.1-2.7-1.9-2.7-3.8.1-.2.2-.4.3-.6,1.5-1.2,2.8-2.9,5-1.3.3.7.2,1.4-.3,2Z"/>
        <path class="cls-137" d="M96.6,89.3c-.6-1.6-1.2-3.3-3.1-3.8-1.5.1-1.5-.9-1.3-1.9.3-.4.6-.7,1.1-.9.7-.2,1.4-.1,2.1.1,1.2.7,1.8,1.9,2.5,3,.4.7.8,1.5,1.1,2.3.1.4,0,.8,0,1.2,0,0-.3,0-.3,0-.6,0-1.3,0-1.9,0Z"/>
        <path class="cls-223" d="M103.5,89.4c0-.7,0-1.4,0-2.1-.7-3.2.8-4.4,3.8-4.1.1.4.2.9.3,1.3-.4.9-.8,1.7-1.2,2.6-1,.8-1.9,1.5-2.9,2.3Z"/>
        <path class="cls-78" d="M30.5,43.3c0-.3,0-.5,0-.8,2,.5,2.5,2.7,3.9,3.9.4.3.6.6.8,1.1.4,1.6.7,3.1.6,4.8-.3.7-.7,1.2-1.4,1.6-.7.2-1.4.1-2-.4-1.3,0-2-.7-2-2,.3-1,.1-2.1.1-3.2.7-1.7-1.3-3.2-.2-4.9Z"/>
        <path class="cls-239" d="M32.6,53.4h2c1.4,1.1,2.1,2.3,1,4-.3.4-.7.8-1,1.2-.7-.7-1.4-1.3-2.1-2,0-1,.1-2.1.2-3.1Z"/>
        <path class="cls-233" d="M31.6,48.4c-.4,1,1.7,2.8-1,3-.3,0-.6,0-.9,0,0-1,0-2,0-3,.7-.6,1.3-.6,2,0Z"/>
        <path class="cls-160" d="M31.6,48.4c-.7,0-1.3,0-2,0,0-1,0-2,0-3,.3-.7.7-1.4,1-2,0,1.8,2.9,2.9,1,5.1Z"/>
        <path class="cls-289" d="M59.5,59.4c0,.3,0,.6,0,1,.3.5.2.9-.1,1.3-.5.2-.9.3-1.4.3-4.4-1.4-3.4-5.5-4.4-8.6,0-1.3,0-2.5.1-3.8,2.4,3,.9,8.4,5.8,9.9Z"/>
        <path class="cls-221" d="M53.6,53.3c1.5,2.8,1.3,6.6,4.9,8.1.6.6.6,1.3.2,2.1-3.4.8-3.8-2.3-5.2-4.1,0-1,0-1.9,0-2.9,0-1.1,0-2.1.1-3.2Z"/>
        <path class="cls-66" d="M47.6,89.4c-.2-1.3.5-2.9-1.1-3.9-.3-1-.7-2-1-3-.3-1.4-.6-2.7-.9-4.1.5-.6,1-1.1,1.8-1.4.4-.1.7-.2,1.1-.2.8-.1,1.5-.6,2.2-.8.4,0,.8,0,1.2.2.6.4.9.9,1.1,1.6-.2,3.4-.8,6.7-1.4,10.1-.2.7-.5,1.3-1.2,1.6-.6,0-1.2-.1-1.8-.2Z"/>
        <path class="cls-150" d="M40.5,67.4c-.3-1.3-.6-2.7-1-4-1.8-2.2,0-4.2.5-6.2.5-1.7.8-3.4,2.8-4.1.5,0,.9.2,1.1.7.7,1.1.6,2.3.4,3.6-2.4,3.8-3.3,7.4,1.3,10.2-.7,2.2-2.4,2.2-4.2,1.8-.8-.4-1-1.2-1.1-2Z"/>
        <path class="cls-79" d="M46.6,77.4c-.4.8-1.1,1-1.9,1-.3-.7-.6-1.4-.9-2.1,1.6-1.9-1.1-4.1.4-6.1.7-.7,1.4-1.3,2.6-.9,1.1,1.2,1.2,2.7,1.4,4.1,0,1.5-.4,2.9-1.6,4Z"/>
        <path class="cls-165" d="M46.6,69.4c-.7.3-1.3.7-2,1-.5.6-.8,1.6-2,1-.3-.7-.7-1.4-1-2.1,1.3-.7,2.6-1.3,4-2-.5-1.3-.1-2.3,1-2.9,1.3-.6,1.5.6,1.9,1.5.2.8.1,1.6-.1,2.3-.4.7-.8,1.3-1.8,1Z"/>
        <path class="cls-113" d="M42.6,71.4c.7-.3,1.3-.7,2-1-1.1,1.8,2.6,4.3-.8,5.9-.4-1.6-.8-3.2-1.1-4.8Z"/>
        <path class="cls-74" d="M41.6,57.4c-.9,1.9-2.2,3.7-2,6-4-.5-2.7-3.6-3-5.9-.1-2.1-.8-4.6,2.6-4.8,3.1.4,1.1,3.4,2.4,4.7Z"/>
        <path class="cls-12" d="M38.5,53.4c-2.5.4-.2,3.2-2,4.1-.3,0-.6,0-1,0-.3-1.3-.7-2.6-1-3.9.3-.3.6-.7,1-1,.5-.6,1.1-.8,1.9-.8.5,0,.9.3,1.3.5.3.4.2.8-.1,1.2Z"/>
        <path class="cls-242" d="M38.5,52.4c-.3,0-.7,0-1,0-1.5-1.4-1.7-3.5-3-5,0-.3,0-.7,0-1,.3-1,.7-2,1-3,.7,0,1.3,0,2,0,2.2,1.2.8-3.1,3-2,2,0,2,1.5,2,3,.7,1,.8,2,0,3,0,.3,0,.7,0,1-.1.2-.2.4-.3.6-1.4,1-2.4,2.4-3.7,3.5Z"/>
        <path class="cls-85" d="M40.6,41.4c-.4.8-.8,1.8-1.4,2.5-1,1.4-1.5.9-1.6-.5.7-1.3,1.3-2.7,2-4,1.8,0,1.5.9,1,2Z"/>
        <path class="cls-61" d="M66.5,58.4c0-.3,0-.7,0-1,.3-1,.7-2,1.1-3,.2-.4.5-.7.8-1,.3,0,.7,0,1,0,2,.9,1.2,3,1.8,4.5.1.9,0,1.8-.6,2.6-.9.5-1.9.3-2.8,0-.8-.4-1.9-.7-1.4-2.1Z"/>
        <path class="cls-185" d="M70.5,57.4c-1.7-1,.2-2.9-1-4,1.9-1.2,0-3.8,2-5,0,1.7,0,3.3,0,5,1,1.2,1.1,2.4.4,3.8-.4.5-.9.6-1.4.2Z"/>
        <path class="cls-70" d="M68.5,53.4v1c-1.3.7-2.1-.2-3-1,0,0,0,0,0,0,.3-1.7.7-3.3,1-5,1.6,1.3,2,3,2,5Z"/>
        <path class="cls-181" d="M73.5,54.4c.3,0,.7,0,1,0,1,.1.5-1.4,1.4-1.3,1.7.6,2.5,2,3.1,3.5.1,2.1-.1,4.1-2.3,5.1-1.4,0-2.6-.3-3.6-1.3-.6-.9-.8-2-.6-3.1,0-1.1,0-2.2,1-3Z"/>
        <path class="cls-52" d="M75.5,53.4c-.1.7-.3,1.4-.4,2.1-.2-.4-.4-.8-.6-1.1,0-3.7,0-7.3,0-11,1.6.9.4,3.1,2,4,.3.4.4.8.5,1.3-.2,1.6,0,3.4-1.5,4.7Z"/>
        <path class="cls-24" d="M73.5,54.4c0,1,0,2,0,3-.7.6-1.3.5-2,0,0-1.3,0-2.7,0-4,.5-.4,1-.8,1.5-1.2.2.7.3,1.4.5,2.2Z"/>
        <path class="cls-179" d="M76.5,48.4c0-.3,0-.7,0-1-.8-2.5,1.4-3.9,2-6,.3-.3.7-.3,1,0,2.4-1.4,4.5-2.4,4,2-.8.4-1,1.2-1,2-.2,0-.3.1-.5.2-1.9.8-.4,2.3-.7,3.4,0,1.2-.1,2.3-1.4,2.8-2-.2-2.8-1.8-3.4-3.4Z"/>
        <path class="cls-44" d="M79.5,41.4c-.3,0-.7,0-1,0-1.2-.2-2.5-.4-1-2,1.2,0,3.1-.5,2,2Z"/>
        <path class="cls-73" d="M66.5,58.4c.4.8,1.2,1,2,1,.5,1,0,1.6-.6,2.3-.5.4-1,.7-1.5,1.1-.9,1-.7,2.5-1.5,3.5-1.2.8-2.3.2-3.3-.5-.4-.4-.6-.8-.8-1.2-.4-1.5-.4-3,.8-4.2,1.4-.1,2.9.5,4-1,.3-.3.7-.7,1-1Z"/>
        <path class="cls-190" d="M61.5,60.4c0,1.7,0,3.3,0,5-2.8-.2-1.6-2.5-2-4,0-.3,0-.7,0-1,.7,0,1.3-1.1,2,0Z"/>
        <path class="cls-123" d="M65.6,53.4c1,.3,2,.7,3,1,0,1.5,0,2.9-2,3-1.5-1-.9-2.6-1-4Z"/>
        <path class="cls-126" d="M47.6,66.4l-.5-1.2c-.5.7-1,1.5-1.5,2.2-5.8-1.3-6.2-3.7-2-10,1.5-1.4,3.1-.9,4.7-.5.5.1.9.3,1.3.5.9.4,1.4,1.2,1.9,2-.3,2,.8,4.2-1,6-2.4.4-.8-2-1.8-2.6,0-.6-.8.4-.2,0,.3-.2.5,0,.4.2-.4,1.2,1.3,3.2-1.4,3.3Z"/>
        <path class="cls-36" d="M46.6,69.4c.3-.3.7-.7,1-1,.9-.8,1.1-2.6,3-2,1.2.7,1,1.9,1,3,1,1.3.3,2.3-.6,3.2-1,.8-2.2.9-3.5.8-1.5-1-.9-2.6-1-4Z"/>
        <path class="cls-206" d="M50.6,72.4c.3-1,.7-2,1-3,2-.1,2-1.6,2-3,.5-.3,1-.3,1.4.2,1.8,4.7-1,7.4-4.4,9.8-.3,0-.6,0-1,0-.4-.2-.7-.5-.9-.9-1.2-2.1.7-2.4,1.9-3.1Z"/>
        <path class="cls-272" d="M53.6,59.4c1.8,1.2,2.6,3.6,5,4,2.2,0,1.3,1.6,1.4,2.7-.3.5-.7.7-1.3.8-2.1-.3-3.5-1.1-3.2-3.5-1-1.1-2.4-2.1-2-4Z"/>
        <path class="cls-58" d="M55.5,63.4c.7,1.3,1.7,2.3,3,3,.7.8.9,1.6.5,2.6-3,1.7-3-1.8-4.5-2.6-.3,0-.7,0-1,0,0-1.4,0-2.9,2-3Z"/>
        <path class="cls-150" d="M50.6,66.4c-1,.7-2,1.3-3,2,0-.7,0-1.3,0-2,1.6-1,.6-2.7,1.3-4,1.3.7.3,2.5,1.7,3,0,.3,0,.7,0,1Z"/>
        <path class="cls-146" d="M49.6,58.4c-.3,0-.7,0-1,0-.8-1.6-2.5-3-1-5,0,0,0,0,0,0,.7.7,1.3,1.3,2,2,.7,1,.9,2,0,3Z"/>
        <path class="cls-150" d="M49.6,58.4c0-1,0-2,0-3,1.8.8,2.1,2.3,2,4-.7-.3-1.3-.7-2-1Z"/>
        <path class="cls-7" d="M47.6,53.4c.3,1.7.7,3.3,1,5-1.5-.9-3.2-1.1-5-1,0-1.3,0-2.6,0-4,.3-.4.6-.4,1,0,1-.6,2-.6,3,0Z"/>
        <path class="cls-242" d="M44.6,53.4c-.3,0-.7,0-1,0,0,0,0,0,0,0-1.7-1.4-2.4-3-1-5,0,0,0,0,0,0,2.3,1,2,3.1,2,5Z"/>
        <path class="cls-244" d="M42.6,47.4c0-1,0-2,0-3,1.6,1,3.1,2,0,3Z"/>
        <path class="cls-204" d="M107.3,83.2c-1.8.8-3.3,2.1-3.8,4.1-1.5.6-3.1,1.3-4.6,1.9-.2-.3-.3-.6-.3-.9-.5-.7,0-1.3.4-1.8,2.5-2.2,3.5-5.1,3.8-8.3.3-.9.9-1.7,1.9-2,1.7.5,2,2.1,2.9,3.3,0,1.2,0,2.5-.1,3.7Z"/>
        <path class="cls-222" d="M55.5,97.4c-1,0-2,0-3.1,0-.3-.4-.5-.8-.8-1.1,1.3-1.5.3-3.9,1.8-5.3,1.3-1,2.6-1.6,4.2-.8.7.8.9,1.7.8,2.7-.2,1.2-.9,2.1-1.6,3.1-.3.6-.7,1.1-1.3,1.5Z"/>
        <path class="cls-124" d="M53.6,91.3c0,1.8.4,3.9-1.9,4.9,0-.3-.1-.6-.2-.8,0-.6,0-1.3,0-2-.3-.4-.4-.8-.3-1.2.6-.8,1.3-1.3,2.3-.9Z"/>
        <path class="cls-243" d="M51.6,92.4c0,.4,0,.7,0,1.1-.7,0-1.3,0-2,0,0-1.3,0-2.6-.1-3.8,0-.7.1-1.5.2-2.2.3-.3.7-.4,1.1-.2.9.6,1.7,1.4,2.1,2.4,0,1.2-.8,2-1.3,2.9Z"/>
        <path class="cls-39" d="M119.5,45.4c1,.3,2,.7,3,1,1.4.4,1.9,1.5,2.4,2.7.2.8-.1,1.7.6,2.3,0,.3,0,.7,0,1-.7,1-1.3,2-2,3-3.8-1.3-2.7-5.5-4.5-7.9-.2-.8-.1-1.5.5-2.1Z"/>
        <path class="cls-94" d="M119.5,47.4c3.5,1.6,1.3,6,4,8,0,1.3-.7,2-2,2,0,0,0,0,0,0,0-1.6-.7-3-1.9-4.1-.3-1.9-1.4-3.9,0-5.9Z"/>
        <path class="cls-180" d="M125.5,51.4c-.8-.4-1-1.2-1-2-.4-1.5-.2-2.9,1-4,.7-.3,1.3-.7,2-1,0,1.3,0,2.6,0,4-1.3.6-2,1.6-2,3Z"/>
        <path class="cls-191" d="M110.5,59.4c1,1,2,2,3,3,.9,1,.8,2,0,3,.4,4.1-2.9,1-4,2-.3-.3-.6-.7-.9-1,.5-1.6-.6-3.2.2-4.8.3-.9.8-1.7,1.7-2.2Z"/>
        <path class="cls-131" d="M113.5,65.4c0-1,0-2,0-3,3.4-.8,2.5,1.2,2,3-.7,0-1.3,0-2,0Z"/>
        <path class="cls-220" d="M63.5,96.4c.7,1.2,1.2,2.5,1,3.9-1.7.3-3.3.7-5,1-2.1-.9-3.9-1.9-1.7-4.4.9-.5,1.9-.7,2.9-.8,1,0,1.9-.3,2.8.3Z"/>
        <path class="cls-203" d="M58.6,97.3c-2.3,2,.3,2.8,1,4-1.3,0-2.6,1-3.9,0,0-1.3,0-2.6-.1-4,0-.7,0-1.3,0-2,1.1-.7,2.3-.8,3.6-.4,1.1,1.1.3,1.7-.6,2.4Z"/>
        <path class="cls-157" d="M106.5,70.4c.7,1,1.3,2,2,3,0,.3,0,.7,0,1-1.1.7-2.2.6-3.3,0-.7-1.7-1.3-3.4,1.3-4Z"/>
        <path class="cls-257" d="M105.6,74.4c1,0,1.9,0,2.9,0,0,1,0,2,0,3-1-.7-1.5-2.1-3-2.2-.2-.2-.3-.4-.2-.5,0-.2.2-.2.3-.2Z"/>
        <path class="cls-248" d="M105.6,74.4c0,.3,0,.5,0,.8-.3,0-.6.1-.9.1-1.3,0-2.1-.9-2.6-2.1,0-.5,0-.9.1-1.4,1.3-1.7,1-4.8,4.3-4.6.3.4.6.7.9,1.1-.8.4-1,1.1-1,1.9-1.5,1.1-.9,2.6-.9,4Z"/>
        <path class="cls-13" d="M102.6,73.2c.7.7,1.4,1.4,2.1,2.1,0,.3,0,.7-.1,1-.3.7-.7,1.3-1,2-2.1-1.4-3.1-3-.9-5.1Z"/>
        <path class="cls-103" d="M106.6,67.3c-2.5.8-1.5,4.3-4,5.1-.3.4-.7.5-1.1.3-.7-.6-1.1-1.3-1.6-2.1-.5-1-.9-2-1.3-3-.5-1.5-1.6-2.7-1.7-4.3,0-1,.4-1.7,1-2.4,2.6-1.6-1-4,.7-5.7.4-.2.9-.4,1.4-.4,3.4,1,3.9,3.6,3.8,6.6-.4,2.7,2.5,3.8,3,6Z"/>
        <path class="cls-275" d="M103.6,61.2c-1.6-1.7-1.4-4.7-3.8-6-1.4-.9-1.9-2.1-1.5-3.7.4,0,.8-.1,1.3-.2,1.5-.4,2,.9,2.7,1.7,1,1.3,1.4,2.9,2.3,4.3.8,1.7,2.4,3.2.9,5.3-.6-.4-1.2-.9-1.8-1.3Z"/>
        <path class="cls-183" d="M109.5,61.4c-.2,1.7.6,3.5-.9,5-.7-.9-1.5-1.9-2.2-2.8,0-1.5-.6-3.1.4-4.5,2-.4,2.6.7,2.8,2.3Z"/>
        <path class="cls-226" d="M106.5,59.4c1,1.4.8,2.8-.1,4.1-.3-.3-.6-.7-.9-1,0-2-1.3-3.5-1.9-5.2-.5-.9,0-1.1.7-1.3.7,0,1.2.5,1.7.9.5.7,1.2,1.4.5,2.4Z"/>
        <path class="cls-281" d="M101.5,53.4c-.7-.7-1.3-1.4-2-2,0-1.9,0-3.9.1-5.8,4.5.4,3.5-5.2,6.8-6.1,0,.7,0,1.3,0,2,.3.3.5.7.4,1.2-.3,2.1-1.6,3.5-2.9,5-1.1,1.4-.2,2.7,0,4.1,0,.7-.1,1.4-.6,1.9-.7.3-1.4.2-2-.3Z"/>
        <path class="cls-57" d="M98.5,55.4c-.3,2,4.8,4,0,6-1-.8-2.1,0-3.1-.3-2-.5-2.7-2.2-3.6-3.7-.2-.4-.3-.8-.4-1.3-.3-.9-.6-1.8-.9-2.7,3-1.7,4.6,1.6,7,2,.3-.3.6-.3.9,0Z"/>
        <path class="cls-11" d="M98.5,55.4c-.3,0-.6,0-.9,0,0-1.2,0-2.5-.1-3.7.3,0,.5-.1.8-.1.5,1.2,1,2.5,1.5,3.7-.4,0-.9,0-1.3.1Z"/>
        <path class="cls-178" d="M103.5,53.4c0-.7,0-1.3,0-2,1.1-1.3,1.1-2.7,0-4l3-5c1.7.3,1.9,2.1,3,3,.3.7.7,1.3,1,2-.9,1.2-1.5,2.5-1,4,.8,2,0,4,0,6-1.3.8-2.7-.4-4,0-.3-.3-.7-.7-1-1-1-.8-1-1.9-1-3Z"/>
        <path class="cls-94" d="M115.5,44.4c.7,1,1.3,2,2,3,1.1,1.7,2.5,3.3,2.4,5.6-.3.9-1.1,1.4-2,1.7-.8.2-1.7,0-2.5-.2-.8-.2-1.4.3-1.9.9-1.4-1-1.9-2.4-1-4,1.5-1.1,1.8-2.8,2-4.5,0-1,.2-1.9,1-2.5Z"/>
        <path class="cls-33" d="M125.5,45.4c.1,1.5-.3,2.8-1,4-.7-1-1.3-2-2-3,.3-1.7.7-3.3,1-5,2.9.2-.2,3.5,2,4Z"/>
        <path class="cls-47" d="M111.5,39.4c1.3,0,2.7,0,4,0,1.7,0,3.3,0,5,0-1.2,4.6-4.7,1.3-7,2-.4-.9-2.6,0-2-2Z"/>
        <path class="cls-77" d="M105.5,57.4c1.3-3.3,2.7.2,4,0,.3.7.7,1.3,1,2,0,.8-.2,1.6-1,2-1-.6-1.4-2.2-3-2-.3-.7-.7-1.3-1-2Z"/>
        <path class="cls-251" d="M109.5,51.4c-1.4-.1-2-.8-1.9-2.2.2-1.9,1.6-1.7,2.9-1.8,1.4,1.8,1.8,3.3-1,4Z"/>
        <path class="cls-166" d="M119.5,53.4c0-2.2-2.6-3.6-2-6,0-1.3.7-2,2-2,0,.7,0,1.3,0,2,.3,2,1.4,3.9,1,6-.2.1-.3.2-.5.3-.2-.1-.3-.2-.5-.3Z"/>
        <path class="cls-90" d="M115.5,47.4c0,2.1.2,4.3-3,4,.1-1.4-.5-2.9,1-4,.7-.6,1.3-.6,2,0Z"/>
        <path class="cls-139" d="M117.5,54.4c.4-.8,1.2-1,2-1,0,0,0,0,0,0,.9,1.3,1.1,2.7,0,4-.2,1.3-.4,2.5-2,1-1-1.3-1.2-2.7,0-4Z"/>
        <path class="cls-45" d="M117.5,54.4c0,1.3,0,2.7,0,4-2,0-2.3-1.7-3-3,0-.8.3-1.5,1-2,.7.3,1.3.7,2,1Z"/>
        <path class="cls-42" d="M109.5,45.4c-2,0-2.3-1.7-3-3,0-.3,0-.7,0-1,.7,0,1.3,0,2,0,.3-.4.7-.3,1,0,0,1.3,0,2.7,0,4Z"/>
        <path class="cls-263" d="M115.5,47.4c-.7,0-1.3,0-2,0-.6-1.8-1.3-3.8,2-3,0,1,0,2,0,3Z"/>
        <path class="cls-202" d="M119.5,57.4c0-1.3,0-2.7,0-4,.3,0,.7,0,1,0,1.4,1.1,1.5,2.5,1,4-.7,0-1.3,0-2,0Z"/>
        <path class="cls-215" d="M109.5,41.4h-.5s-.5,0-.5,0c0-2,1.5-2,3-2,.7.7,1.3,1.3,2,2-1.3,0-2.7,0-4,0Z"/>
        <path class="cls-278" d="M115.5,53.4c0,.8-.2,1.6-1,2-.3,0-.7,0-1,0,0-1.3-.4-3.1,2-2Z"/>
        <path class="cls-76" d="M79.5,51.4c1.2-.7,1-1.9,1-3,.8-.9,1.1-2.2,2-3,0,0,0,0,0,0,1.3,2,2.6,4,4,6-2.6.2-3.1,1.9-2.9,4,0,1.4.1,2.7.2,4.1,0,.2-.2.4-.3.6-1,1.1-1.6,2.5-2.1,3.9-.2.4-.5.8-.8,1.2-.8.7-1.8,1.1-2.9.9-2.4-1.1-2.5-2.7-1.1-4.7,1.3-1.4,1.6-3.2,2-5-1.3-2-.8-3.6,1-5Z"/>
        <path class="cls-161" d="M83.7,59.5c.6-.3,1.2-.5,1.8-.7.2,1.2,0,2.6,1.8,2.4.2.2.3.3.5.5,0,1.5-.3,2.7-2.1,2.8-1.2-.6-2.5-1.1-3.4-2.1-.2-1.3.5-2.1,1.4-2.9h0Z"/>
        <path class="cls-161" d="M87.3,61.2c.9-2.1,1.4-4.5,4.1-5,0,0,0,.4,0,.4,1,3.4-1,4.5-3.9,5-.1-.1-.2-.2-.4-.4Z"/>
        <path class="cls-234" d="M88.5,92.3c.3,0,.7,0,1,0,.1,1.5-.3,2.7-1,4-2.8-.3-3.3-1.7-2-4,.7-.6,1.3-.6,2,0Z"/>
        <path class="cls-155" d="M88.5,92.3c-.7,0-1.3,0-2,0-.3-.3-.7-.7-1-1-.5-.5-.7-1.1-.5-1.9.2-.7.5-1.3,1-1.8.5-.5,1.1-.8,1.8-.5,1,1,3.1,1,2.7,3.2-.7.7-1.3,1.3-2,2Z"/>
        <path class="cls-6" d="M85.5,89.4c0,.7,0,1.3,0,2-1.3,0-1.9.8-2,2-1-.4-1.6-1.1-2-2,0-.8.3-1.4.8-2,1.1-.9,2.2-1,3.3,0Z"/>
        <path class="cls-81" d="M70.5,96.4h-.5s-.5,0-.5,0c-.6-.5-.9-1.1-1-1.9-.5-1.6-1.3-3.2-.8-4.9.8-2.1,2.1-1.1,3.4-.6,2.4.6,2.8,2.2,2.3,4.3-1,1-2,2.1-2.9,3.1Z"/>
        <path class="cls-98" d="M73.5,93.3c-1.3-.7-.2-3.7-3-2.9-.2-.3-.3-.5-.3-.8,0-.3.1-.4.2-.4.6-.5,1.2-.7,1.9-.7.7,0,1.4,0,2.1,0,.5,0,.9.3,1.3.5.7.6,1.3,1.3.8,2.4-.3.3-.7.7-1,1-.7.3-1.4.6-2.1,1Z"/>
        <path class="cls-50" d="M79.5,92.4c-.7-.4-1.3-.8-2-1.2-.8-1-.4-1.7.5-2.2.5-.1.9,0,1.4,0,.9.6,1.2,1.4,1.1,2.4-.3.3-.7.7-1,1Z"/>
        <path class="cls-4" d="M80.5,91.4c-.8-.4-1-1.2-1-2,1.4-1,2.4-.4,3.1,1-.3.3-.7.7-1,1-.3,0-.7,0-1,0Z"/>
        <path class="cls-227" d="M78.5,89.3c-.8.4-1,1-1,1.8-.3,0-.6.1-1,.1-.4-.6-.7-1.3-1.1-1.9-.2-1.4-.1-2.8.6-4.1.5-.6,1-1.1,1.8-1.1.8.3,1.2.9,1.5,1.6.3,1.4,0,2.6-.9,3.6Z"/>
        <path class="cls-136" d="M67.5,94.3c-.7.3-1.3.7-2,1-.9-1-1.1-2.1-.8-3.4.4-1.2.9-2.2,2.1-2.8.5,0,.9.1,1.1.6,0,1.2.1,2.3.3,3.5-.1.5-.3.9-.7,1.2Z"/>
        <path class="cls-117" d="M63.5,96.4c-.7.3-1.3.7-2,1-.5-.6-.9-1.2-.9-2,0-.8.2-1.5.7-2.1.7-.5,1.4-.6,2.2-.3.9.6,1.5,1.3,1.1,2.5-.3.3-.7.7-1,1Z"/>
        <path class="cls-208" d="M67.5,94.3c0-.3,0-.7,0-1,1.2-.6,1.4.5,2,1,0,.7,0,1.3,0,2-.4.8-1.2,1-2,1,0-1,0-2,0-3Z"/>
        <path class="cls-72" d="M64.5,95.3c-.3-.7-.7-1.3-1-2-.3-1.6.4-2.2,2-2,0,1.3,0,2.7,0,4-.3,0-.7,0-1,0Z"/>
        <path class="cls-99" d="M90.5,93.4c1,.3,2,.7,3,1-.3,1-.7,2-1,3-.7.3-1.3.7-2,1,0-1.7,0-3.3,0-5Z"/>
        <path class="cls-26" d="M92.4,83.4c.4.7.7,1.4,1.1,2.1-1,.6-2,1.3-3,1.9-.4.3-.8.4-1.2.3-1-.8-2.3-1.3-3.3-2.2-1.2-1.8-.5-2.7,1.4-2.9,1.3-.1,2.5.5,3.8.4.5,0,.9.2,1.2.5Z"/>
        <path class="cls-186" d="M89.5,87.3c.3,0,.7,0,1,0,.3.7.7,1.3,1,2-.3.3-.7.7-1,1-.7-1.3-3.2-.8-3-3,.7-.7,1.3-.6,2,0Z"/>
        <path class="cls-169" d="M95.5,83.4c-.7,0-1.4,0-2.1-.1-.2-.4-.3-.9-.2-1.3.7-1.7,1.9-2.7,3.6-3.3,1-.2,1.9-.2,2.8.4.5.5.8,1.2.9,2,0,.7,0,1.4-.4,2-.7,1-2,.3-2.8.9-.7,0-1.2,0-1.7-.6Z"/>
        <path class="cls-46" d="M93.3,82.4c0,.3.1.5,0,.8-.3,0-.7,0-1,.1-.3,0-.6.1-.9.2-1.5.2-2.2-1-3.3-1.7-.7-.8-1.4-1.6-2-2.5-.1-.4-.1-.9,0-1.3.4-1,1-2,2.3-2,1.3.5,1.9,1.7,2.6,2.8.5.9,1,1.7,1.7,2.5.3.3.4.7.5,1.1Z"/>
        <path class="cls-277" d="M97.5,83.4c.7-1.1,1.3-.1,2,0,1.3,1.3.9,2.7,0,4-.3.3-.6.7-1,1-.8-.4-1-1.1-1-2,0-1-.8-2,0-3Z"/>
        <path class="cls-286" d="M97.5,83.4c.3,1,1.6,2,0,3-1.3-.6-2.1-1.5-2-3,.7,0,1.3,0,2,0Z"/>
        <path class="cls-167" d="M34.6,47.4c2.5.8,3.4,2.5,3,5-.7,0-1.4,0-2,0-.9-1.5-1.1-3.2-1-5Z"/>
        <path class="cls-264" d="M59.6,66.4c-.1-1.1,0-2.2-1.1-3,0-.7,0-1.3,0-2,.3,0,.7,0,1,0,1.6.9.4,3.1,2,4,0,0,0,0,0,0,.3.2.4.4.4.7,0,.3,0,.4-.1.4-.3.3-.7.4-1.1.5-.4,0-.8-.2-1.1-.6Z"/>
        <path class="cls-2" d="M50.6,87.4c-.3,0-.7,0-1,0,.8-3.3.4-6.8,2-10,.7-.3,1.2,0,1.6.5.5.6.9,1.3,1.5,1.9,1.2.7,1.6-.3,2.2-.9.3-.3.7-.6,1.1-.6,1,.3,1.3,1.2,2,2.2.3-1.2.1-2,.1-2.8,0-.8.5-1.3,1.2-1.6.5,0,1,0,1.4,0,1.3.7,2.2,1.8,2.5,3.3,0,1.4-.5,2.7-.9,4-.7,1.8-1.2,3.7-1.9,5.5-.2.4-.4.8-.6,1.1-1.1,1.1-1,2.9-2.4,3.8-.7.2-1.3.2-1.8-.4,0-1,0-2,0-3-.3-.3-.6-.6-.8-.9-.8-1-1.9-1.3-3.1-1.4-.9-.5-2-.3-3-.7Z"/>
        <path class="cls-217" d="M52.6,78.4c-.3-.3-.7-.7-1-1-.3-.3-.7-.7-1-1,1.3-3.3,5.1-5.7,4-10,2.7-.8,1.9,3,4,3,.3.3.5.7.5,1.2-.4,2.4,3,3.3,2.5,5.8-.3.3-.7.7-1,1-.7.9-1.6.7-2.6.5-.4-.1-.8-.4-1-.8-.5-.9-1.1-1.5-1.9-.2-.7.8-1.1,2-2.5,1.5Z"/>
        <path class="cls-41" d="M50.6,72.4c-.6.9-2.1,1.5-1,3-.7.6-1.2,1.5-2,2-.3,0-.7,0-1,0-.2-1.5.3-2.8,1-4,.7-1.2,1.9-1,3-1Z"/>
        <path class="cls-102" d="M47.5,77.4c0-1.3.7-2,2-2,0,.3,0,.7,0,1-.5.6-.6,2.2-2,1Z"/>
        <path class="cls-17" d="M42.6,48.4c.3,1.7.7,3.3,1,5-1.8.8-2.1,2.3-2,4-1.7-.8-.2-4-3-4,0-.3,0-.6,0-1-.2-2.9,1.7-3.7,4-4Z"/>
        <path class="cls-172" d="M76.5,61.4c.1,1.7-.6,3.7,2.1,4.1.8,1.7-.2,2.4-1.6,2.8-2.4.3-3.5-1.4-4.8-2.9-1-2.1-2.7-.3-4-.8-1-.9-1.6-1.8-.6-3.1.3-.7.7-1.3,1-2,.7.3,1.3.7,2,1,1-.8,2-.8,3,0,1.1,0,2.3-.2,3,1Z"/>
        <path class="cls-285" d="M73.5,60.4c-1,0-2,0-3,0,0-1,0-2,0-3,.3,0,.7,0,1,0,.7,0,1.3,0,2,0,0,1,0,2,0,3Z"/>
        <path class="cls-271" d="M79.5,51.4c-.3,1.7-.7,3.3-1,5-1-1-2-2-3-3,.2-1.7-.7-3.6,1-5,1.7.3,1.9,2.1,3,3Z"/>
        <path class="cls-59" d="M82.5,45.4c-.7,1,1.7,4-2,3-1.5-1.6,0-3,.2-4.6.6.5,1.2,1,1.8,1.6Z"/>
        <path class="cls-34" d="M61.5,66.4c0-.3,0-.7,0-1,1,.3,2,.7,3,1,1.5-.3,3-.2,4.2.9.5.9.3,1.9.6,2.8.4,1.2,1.2,2.5-.1,3.5-1.4,1-2.7.4-4-.5-1.5-2.1-4.4-3.4-3.7-6.7Z"/>
        <path class="cls-109" d="M68.5,67.4c-1.4-.2-3,.5-4-1,.2-1.7-.7-3.6,1-5,1.1.9,1.1,2.9,3,3,1.3-2.3,2.7-3.9,4,0,0,1.9-.9,3.1-2.8,3.5-.5,0-.9-.2-1.2-.5Z"/>
        <path class="cls-269" d="M68.5,64.4c-1.6,1.1-2.4.3-3-3,.7,0,1.3,0,2,0,.3,1,.7,2,1,3Z"/>
        <path class="cls-104" d="M58.6,70.4c0-.3,0-.7,0-1,0-1,0-2,0-3,.4,0,.7,0,1.1,0,.3,0,.6,0,.9,0,1.5,2.4,3.1,4.7,4.6,7.1.2.7,0,1.4-.4,2.1-.7.4-1.3.5-2.1.2-1.7-1.5-3.9-2.7-4.1-5.4Z"/>
        <path class="cls-295" d="M99.5,87.3c0-1.3,0-2.7,0-4,0-.7,0-1.4,0-2,.6-.6.4-1.5.9-2.1-.3,0-.6,0-.9.2-1,0-2,0-3,0-.6-.5-.8-1.1-.8-1.8,0-.5.2-.9.5-1.2.9-.6,2-.9,2.3-2,.2-.4.4-.8.7-1.1.7-.6,1.5-.9,2.4-.9.3,0,.6.1,1,.1,0,.3,0,.6,0,.9-1,1.9.3,3.5.9,5.1.4,3.8-.9,6.8-4,9Z"/>
        <path class="cls-20" d="M57.5,89.4c0,.3,0,.7,0,1-1.3.3-2.6.7-4,1-.7.3-1.3.7-2,1,.3-1,.6-2,1-3,.5-.7,1.3-.9,2.1-1,1.1,0,2.1.2,2.9,1Z"/>
        <path class="cls-207" d="M57.6,93.4c.7,0,1.3,0,2,0,.5.4.6,1,.4,1.6-.1.1-.3.3-.4.4-1.3,0-2.7,0-4,0,.7-.7,1.3-1.3,2-2Z"/>
        <path class="cls-111" d="M54.6,89.4c-.7,0-1.4,0-2,0-1.3,0-2-.7-2-2,1-.6,2-.6,3,0,.7.5,1.6.9,1,2Z"/>
        <path class="cls-168" d="M61.5,95.3c0,.7,0,1.3,0,2-1,0-2,0-3,0,.3-.7.7-1.3,1-2,0,0,0,0,0,0,.7-.6,1.3-.6,2,0Z"/>
        <path class="cls-189" d="M101.6,72.2c-.4.9-1.2,1.1-2.1,1.2-1.2-.7-1.6-1.8-1.5-3.1.9-2.1,1.8-.5,2.7,0,.9.4.8,1.2.8,1.9Z"/>
        <path class="cls-252" d="M97.5,63.4c.6,1.3,1.3,2.7,1.9,4-.6.6-1.2.5-1.9.2-1-.8-1.5-1.8-1.6-3,0-.5.2-.9.4-1.3.4-.3.8-.2,1.2.1Z"/>
        <path class="cls-175" d="M97.5,63.4c-.3,0-.5,0-.8,0-1.6-.4-2.1-1.3-1.5-2.8,1,.5,2.9-1.9,3.3.9-.8.4-.9,1.2-1,2Z"/>
        <path class="cls-54" d="M97.6,67.3c.6,0,1.2,0,1.8.1.9.8,1.2,1.8,1.3,2.9-.7,0-1.5-.9-2.2,0-.8.4-1.2,0-1.6-.7-.2-.7-.2-1.3.1-1.9.2-.1.3-.3.5-.4Z"/>
        <path class="cls-258" d="M103.5,53.4c1.2.7,1,1.9,1,3-.3.3-.7.7-1,1-.7-1.3-1.3-2.7-2-4,.7,0,1.3,0,2,0Z"/>
        <path class="cls-153" d="M103.5,47.4c1.5,0,3.1,0,2.9,2.2-.1,1.9-1.6,1.7-2.9,1.8-.7-1.3-3.5-2.7,0-4Z"/>
        <path class="cls-198" d="M95.2,60.5c.5.9,1,1.9,1.5,2.8-.2,0-.4,0-.5.1-.2.3-.5.5-.9.6-.4,0-.7,0-1.1,0-.8,0-.8,1.1-1.6,1.2-.6.1-1.1.1-1.7,0-.5-.1-1.1-.2-1.7,0-1,.6-1.1,1.8-1.8,2.5-.6.4-1.2.4-1.9.2-.8-.6-.9-1.5-.8-2.4.1-.4.3-.8.7-1.1,1.3-.4,1.7-1.6,2.2-2.6,1.6-1.4,3.4-2.7,3.9-5,2.5,0,1.6,3.5,3.7,3.9Z"/>
        <path class="cls-121" d="M76.6,67.4c1.3,0,2-.7,2.1-1.9.7-.3,1.3-.7,2-1.1,1.8-.1,1.6,1.2,1.7,2.4-.3,1.6-1.5,3.2-.5,5,.1.4.1.9,0,1.3-.4.7-1.1.9-1.8.9-2.7-.7-4.2-2.4-4.1-5.3.2-.5.4-.9.8-1.2Z"/>
        <path class="cls-95" d="M81.5,67.4c0-1.1.2-2.3-.9-3,0-.3,0-.6,0-.8.5-.8.8-2,2.2-1.2,1.2,0,2.6,0,2.6,1.8,0,0,.1.4.1.4-2.6,2.5-.5,6-1.8,8.8-1.1.6-1.7,0-2.2-.9h0c-1.1-1.7-.8-3.4,0-5Z"/>
        <path class="cls-60" d="M82.8,62.4c-.7.4-1.5.8-2.2,1.2.2-2,.4-3.9,3-4.1-.3,1-.6,1.9-.8,2.9Z"/>
        <path class="cls-135" d="M89.5,87.3c-.7,0-1.3,0-2,0-.3.3-.7.6-1,1-2.9.6-5.3-.4-7.3-2.4-.2-1.3,0-2.4.8-3.4.9-.8,1.7-.4,2.6,0,.8.4,1.5.9,2.1,1.4.5.7.9,1.3,1.8,1.4,1.4,0,2.4.7,3,2Z"/>
        <path class="cls-108" d="M79.5,85.4c2.3,1,4.7,2,7,3-.3.3-.7.7-1,1-1.1,0-2.3-.2-3,1-1-.3-2-.6-3.1-1-.3,0-.6,0-.9,0,0-1.3,0-2.7,0-4,.3-.4.7-.4,1,0Z"/>
        <path class="cls-67" d="M70.6,89.3c0,.3,0,.7,0,1-.9.1-.6-2-2-1-.3.4-.6.5-1,0h0c-1.1-1.3-1.2-2.8,0-3.9,1.2-1.1,2.3-.5,3.3.5.7,1.2.6,2.3-.2,3.3Z"/>
        <path class="cls-159" d="M67.5,89.4c.3,0,.7,0,1,0,.3,1.7.7,3.3,1,5-.7-.3-1.3-.7-2-1,0-1.3,0-2.6,0-4Z"/>
        <path class="cls-162" d="M74.6,89.3c-.7,0-1.4,0-2,0-1-.6-1.7-1.5-1.4-2.8.2-.7.7-1.2,1.3-1.5.5-.1.9,0,1.4,0,.6.4,1.1.9,1.4,1.6.3,1,.1,1.9-.6,2.7Z"/>
        <path class="cls-255" d="M74.6,89.3c0-1,0-2,0-3.1,0-1.8,1-1.4,2-.9-.1,1.4.5,3-1,4,0,0-.5,0-.5,0h-.5Z"/>
        <path class="cls-171" d="M71.5,86.3c.3,1,.7,2,1,3-.7,0-1.3,0-2,0,0-1,0-2,0-3-.3-.3-.4-.5-.3-.8,0-.3.2-.4.3-.4.8,0,1.4,0,1,1.2Z"/>
        <path class="cls-43" d="M79.5,85.4c-.3,0-.7,0-1,0-.3-.3-.6-.7-1-1-1.8-.3-3.5-.9-4.7-2.4-.6-1.2-1.8-2.1-1.6-3.7,1.4-2,3-1.7,4.6-.4,1.3,1,2.3,2.4,3.9,3,.6.4,1.1.7.8,1.6-.3,1-.7,2-1,3Z"/>
        <path class="cls-68" d="M73.5,81.4c1,1.4,3.5.9,4,3-.3.3-.7.7-1,1-.8,0-1.5.2-2,.9-.3-.3-.7-.6-1-.9-1.1-1.1-2.1-2.2-1.3-3.9.4-.4.8-.4,1.3,0Z"/>
        <path class="cls-116" d="M70.6,85.4c0,.3,0,.7,0,1-3.9-1.9-2.7,1.2-3,3-.7.7-1.3,1.4-2,2-1,.4-1.6,1-2,2-.7,0-1.3,0-2,0-2.2-1.3-1-2.7,0-4h0c1.7-1.7,1-4.1,2-6-.1-1.5.3-2.8,1.1-4,.5-.5,1.1-.6,1.8-.3,1,.7,1.1,2.2,2.2,2.9.5.3,1,.7,1.4,1.2.5.7,1,1.4.5,2.3Z"/>
        <path class="cls-152" d="M61.6,89.4c0,1.3-1,2.7,0,4,0,.7,0,1.3,0,2-.7,0-1.3,0-2,0,0-.7,0-1.3,0-2,.2-1.6-.7-3.7,2-4Z"/>
        <path class="cls-164" d="M80.5,82.4c-.3-.3-.7-.7-1-1-2.4-.1-1.8-1.9-1.7-3.3.2-.5.5-.8.9-1.1,2.7-.6,4.9.5,6.9,2,.6,1.1,1.4,2.1,2.8,2.3,1,.7,2,1.5,2.9,2.2-.8,1.5-1.5,1-2.6.2-1-.6-3.3-1.6-2.3,1.5-1.6,1.5-1.8.3-2-1-.5-.6-1.1-1.1-2-1-.7-.3-1.3-.7-2-1Z"/>
        <path class="cls-188" d="M96.5,77.4c0,.7,0,1.3,0,2-1.1,1-2.2,2-3.2,3.1-.3,0-.5,0-.7-.2-.3-1.3-.9-2.4-2.3-2.8l-2.1-3c-.1-.5,0-1,.3-1.4.6-.4,1.3-.5,2.1-.4,1.1,2.8,4.6.2,5.9,2.6Z"/>
        <path class="cls-32" d="M99.5,79.4c.5-.8.9-1.6,1.6-2.8.6,2.3-.4,3.6-1.5,4.7,0-.6,0-1.3,0-1.9Z"/>
        <path class="cls-246" d="M88.2,75.5c0,.3,0,.6,0,.9-.6.7-1.2,1.3-1.7,2-3.6,1.2-4.4-2.3-6.4-3.7,0-.5.1-.9.5-1.3.3-.3.7-.6,1-1,.8.3,1.5.6,2.3.9.3-.3.7-.4,1.2-.4,1.5.4,3,.8,3.3,2.7Z"/>
        <path class="cls-145" d="M80.5,74.4c2.3.8,3.2,3.7,6,4,0,.3,0,.7,0,1-.3.4-.6.4-1,0-2.2,0-4-1.3-6-2-.7-1.3-1.3-2.6,1-3Z"/>
        <path class="cls-209" d="M85.5,79.4c.3,0,.7,0,1,0,1.3,0,2,.7,2,2-2.8,2-2.9,0-3-2Z"/>
        <path class="cls-49" d="M90.3,79.4c2.6-.6,2.7.8,2.3,2.8-1.4-.4-1.9-1.6-2.3-2.8Z"/>
        <path class="cls-184" d="M64.5,73.5c-2.4-1.8-3.2-4.4-4-7,.3,0,.7,0,1,0,1.3,2,2.7,4,4,6,.3.2.4.5.3.7,0,.3-.1.4-.2.4-.4.3-.8.2-1.2,0Z"/>
        <path class="cls-5" d="M57.6,77.4c1,0,2,0,3,0,1.5,1.8,1.7,4.4-.1,5-2.9.9-.9-3.3-2.9-4-.2-.3-.2-.7,0-1Z"/>
        <path class="cls-87" d="M57.6,77.4c0,.3,0,.7,0,1,0,.3,0,.7,0,1-1,1.5-2.3,2.1-4,1-.3-.7-.7-1.3-1-2,.7-.7,1.3-1.3,2-2,1-.8,2-.8,3,0,0,.3,0,.7,0,1Z"/>
        <path class="cls-62" d="M58.6,70.4c1.3,1.7,2.6,3.3,4,5,.3.2.3.5.2.7-.1.2-.2.3-.3.3-.3,0-.6,0-.9,0-1-2-5.2-2.4-3-6Z"/>
        <path class="cls-143" d="M62.4,76.4c0-.3,0-.7,0-1,.7,0,1.3,0,2,0,1.3.2,2,1,2.5,2.1.1.7,0,1.4-.6,1.9-.6,0-1.2,0-1.8,0-.7-1-1.5-2-2.2-3Z"/>
        <path class="cls-152" d="M63.5,83.4c-.7,2,1.6,5-2,6,0-2.2.5-4.3,2-6Z"/>
        <path class="cls-140" d="M54.6,89.4c-.3-.7-.7-1.3-1-2,2.1-.9,3.6-.5,4,2-1,0-2,0-3,0Z"/>
        <path class="cls-62" d="M53.6,80.4c1.5.2,2.7-.3,4-1-.8,2.6-1.9,3.7-4,1Z"/>
        <path class="cls-119" d="M57.5,76.4c-1,0-2,0-3,0,.2-1.1.1-2.5,1.7-2.3,1.1.1,1.2,1.3,1.3,2.3Z"/>
        <path class="cls-301" d="M76.6,67.4c0,.3,0,.6,0,1-.6.9-1.1,1.8-2.2,2.1-2.7.7-5.4,1.4-4.8-3.1,1-1,2-2,3-3,1.8.4,1.9,3.1,4,3Z"/>
        <path class="cls-288" d="M69.5,67.4c.3,4,3,2.3,5,2,.3.3.5.7.6,1.2,0,.4-.2.9-.4,1.2-.8,1-1.7,2-2.5,3-.9,1-1.6,2.1-2.8,2.8-.4.1-.9,0-1.3-.2-1-1.3-3.2-1.7-2.6-4,0-.3,0-.7,0-1,1,.4,2.1,1.5,3.2.6,1.2-1.1-.5-1.5-.9-2.3-.5-1.3.3-2.2.7-3.2.3,0,.7,0,1,0Z"/>
        <path class="cls-132" d="M65.5,73.4c.4,1.7,3.1,1.7,2.9,3.9-.2.3-.5.6-.9.6-.4,0-.7-.2-1-.5-.7-.7-1.4-1.4-2-2,0-.6,0-1.3,0-1.9.3,0,.7,0,1,0Z"/>
        <path class="cls-235" d="M96.5,77.4c-1.8-1.2-4.8.9-6-2-.5-1.6.6-2.2,1.8-2.8,1.2-.4,2.4-.4,3.7,0,.5.2.8.5,1.1,1,.4,1,.3,1.9-.5,2.7,0,.3,0,.7,0,1Z"/>
        <path class="cls-219" d="M97.5,69.4c.3.3.6.6.9,1,.3,1,.7,2,1,3,0,.3,0,.7,0,1-1.3.7-2.1-.2-3-1h0c-.9-.9-1.8-1.9-1.4-3.4.6-1.1,1.4-1.5,2.5-.6Z"/>
        <path class="cls-250" d="M96.5,73.4c1,.3,2,.7,3,1,.2,2.4-.6,3.4-3,2,0-1,0-2,0-3Z"/>
        <path class="cls-291" d="M95.4,63.4c.2,0,.5,0,.7,0,.5,1.3.9,2.6,1.4,3.9,0,0,0,.1,0,.1-3.9.3-3-1.8-2.1-4Z"/>
        <path class="cls-174" d="M95.4,63.4c.2,1.6-.6,3.6,2.1,4,0,.7,0,1.3,0,2-.8,0-1.6.2-2.1,1-.4.8-1,1.4-2,1.3-.6-.3-1.1-.7-1.4-1.3-.4-1.1,0-2.1.3-3.2.1-.4.3-.8.4-1.2.6-.9,1.1-1.7,1.8-2.5.3,0,.6,0,.9,0Z"/>
        <path class="cls-231" d="M84.6,73.2c-.3,0-.6.1-.8,0-.8-3.2-2.4-6.6,1.8-8.8,0,.9,0,1.9-.1,2.8.3,1.6.3,3.1,0,4.7-.2.4-.4.8-.8,1.1Z"/>
        <path class="cls-176" d="M93.5,67.3c-.3,1-.6,2-1,3-1.6.6-2.7-.2-3.6-1.4-.8-2-.3-3.8.6-5.6.3.3.7.7,1,1,1.3.6,2,1.9,2.9,2.9Z"/>
        <path class="cls-149" d="M84.8,72.3c0-1.7-.9-3.5.7-4.9.7,0,1.4,0,2,0,.2.2.3.3.5.5.6,1.2.5,2.3,0,3.5-.9,1-1.9,1.4-3.2,1Z"/>
        <path class="cls-147" d="M89.5,63.4c0,2,0,4,0,6-.2,0-.4.1-.6.2-1-.4-.7-1.6-1.4-2.2,0,0,0,0,0,0-.7-2,0-3.3,2-4Z"/>
        <path class="cls-100" d="M94.5,63.4c-.3,1-.7,2-1,3-1.8.1-1.6-.8-1-2,.9.2.7-2.1,2-1Z"/>
        <path class="cls-31" d="M92.5,64.4c0,.8.2,1.5,1,2,0,.3,0,.7,0,1-1.9,0-2.2-1.7-2.9-2.9.6,0,1.3,0,1.9,0Z"/>
        <path class="cls-25" d="M74.7,70.4c0-.3,0-.7-.1-1,.7-.3,1.3-.7,2-1,.2,2.6,1.7,4.1,4,5,0,.3,0,.7,0,1-1.2.7-.9,1.9-1,3-.3,0-.7,0-1,0-.8.4-1.3,0-1.8-.6-1.8-1.8-1.7-4.2-2-6.4Z"/>
        <path class="cls-21" d="M81.5,67.4c0,1.7,0,3.3,0,5-3.1-1.7-1.5-3.3,0-5Z"/>
        <path class="cls-112" d="M82.5,83.3c0-.6,0-1.4.8-1.3,1.1.3,1.1,1.3,1.2,2.3-.8,0-1.6-.2-2-1Z"/>
        <path class="cls-91" d="M67.5,77.5c.3,0,.6-.1.9-.2,0,0,0,.2,0,.2,1.2,1.4,3.2,2.1,3.9,4,.4,1.3.7,2.6,1.1,4-.3,0-.7,0-1,0-1.1-.5-2-1.4-3-2-.3-.3-.7-.6-1-.9-1.8-1.3-1.8-3.1-1-4.9Z"/>
        <path class="cls-148" d="M69.5,83.4c1.5,0,2.5.6,3,2-.3.3-.7.7-1,1-.3-.3-.6-.7-1-1-.4-.7-.7-1.3-1.1-2Z"/>
        <path class="cls-267" d="M77.5,76.4c.3.3.7.7,1,1,.1,1.4-.4,2.9,1,4-2.2,1.9-2.2-.9-3-1.6-1.5-1.2-2.7-3-4.9-1.4-2.3-1.7-.2-2.4.7-3.4.4-.2.9-.4,1.4-.4,1.6,0,2.6,1.1,3.8,1.8Z"/>
        <path class="cls-192" d="M72.5,75.4c0,1.1-2.2,1.5-.9,3,.6,1,2.2,1.4,2,3-.4,0-.7,0-1.1,0-1.6-1-4.4-.9-3.9-4,1-1,2-2.1,3-3.1.6.1.9.5,1,1.1Z"/>
        <path class="cls-148" d="M67.5,77.5c-.1,1.7.2,3.4,1,4.9-3.4.8-1.4-2-2-3.1,0-.7,0-1.3,0-2,.3,0,.6,0,1,0Z"/>
        <path class="cls-241" d="M84.8,72.3c.9-.3,1.8-.6,2.7-.9.7-.6,1.3-1.4,2-2,0,0,0,0,0,0,1,.3,2,.7,3,1,.3.3.7.7,1,1,.6,1.1-.4,1.4-1,2-.7.7-1.3,1.3-2,2-.8,0-1.5,0-2.3.1-1.2-.8-2.4-1.5-3.6-2.3,0-.3,0-.6.2-.9Z"/>
        <path class="cls-210" d="M77.5,76.4c-1.3-.3-2.7-.7-4-1-1.3-1.7.3-2.9.9-4.2,0-.3,0-.5.2-.8,2.1,1.5.9,4.5,2.8,6Z"/>
        <path class="cls-287" d="M74.4,71.2c-.3,1.4-.6,2.8-.9,4.2-.3,0-.7,0-1,0-.3-.4-.7-.7-1-1.1.6-1.4,1.3-2.7,2.9-3.1Z"/>
        <path class="cls-256" d="M92.5,73.4c.3-.7.7-1.3,1-2,.7-.3,1.3-.7,2-1,.3,1,.7,2,1,3-1.3,0-2.7,0-4,0Z"/>
        <path class="cls-19" d="M89.5,69.4c0,1.3-.7,2-2,2,0-1.3,0-2.6,0-4,.7.7,1.3,1.3,2,2Z"/>
      </g>
    </g>
  </g>
</svg>