<svg width="128" height="128" viewBox="0 0 128 128" fill="none" xmlns="http://www.w3.org/2000/svg">
  <!-- 背景圆 -->
  <circle cx="64" cy="64" r="60" fill="#2563eb" stroke="#1d4ed8" stroke-width="2"/>
  
  <!-- 书签图标 -->
  <path d="M32 24C32 20.6863 34.6863 18 38 18H90C93.3137 18 96 20.6863 96 24V100C96 103.314 93.3137 106 90 106H38C34.6863 106 32 103.314 32 100V24Z" fill="white"/>
  
  <!-- 书签顶部锯齿 -->
  <path d="M38 18C38 18 44 22 48 26C52 22 58 18 58 18H90" fill="#f3f4f6"/>
  
  <!-- 内部内容 -->
  <rect x="44" y="32" width="32" height="4" rx="2" fill="#2563eb"/>
  <rect x="44" y="42" width="28" height="4" rx="2" fill="#6b7280"/>
  <rect x="44" y="52" width="24" height="4" rx="2" fill="#9ca3af"/>
  <rect x="44" y="62" width="36" height="4" rx="2" fill="#d1d5db"/>
  <rect x="44" y="72" width="30" height="4" rx="2" fill="#e5e7eb"/>
  
  <!-- W 字母 -->
  <path d="M40 40L44 48L48 40L52 48L56 40L60 48L64 40V56H40V40Z" fill="#2563eb"/>
</svg>